<svg width="306" height="169" viewBox="0 0 306 169" fill="none" xmlns="http://www.w3.org/2000/svg">
<g opacity="0.6">
<path d="M144.972 14.6348C148.54 8.45506 157.46 8.45506 161.028 14.6348L194.744 73.0336C198.312 79.2133 193.852 86.938 186.717 86.938H119.283C112.148 86.938 107.688 79.2133 111.256 73.0336L144.972 14.6348Z" fill="white"/>
<path d="M151.913 62.3267L151.294 35.9551H156.809L156.19 62.3267H151.913ZM157.654 69.7636C157.654 71.6096 156.134 73.0336 154.277 73.0336C152.307 73.0336 150.787 71.6096 150.787 69.7636C150.787 67.9175 152.307 66.4935 154.277 66.4935C156.134 66.4935 157.654 67.9175 157.654 69.7636Z" fill="#555555"/>
<path d="M14.2538 160V134.8H22.8038C24.1478 134.8 25.3598 135.13 26.4398 135.79C27.5198 136.438 28.3778 137.32 29.0138 138.436C29.6498 139.54 29.9678 140.782 29.9678 142.162C29.9678 143.398 29.7158 144.52 29.2118 145.528C28.7078 146.536 28.0178 147.37 27.1418 148.03C26.2778 148.69 25.2998 149.128 24.2078 149.344L30.3638 160H27.4478L21.3818 149.542H16.7738V160H14.2538ZM16.7738 147.022H22.5878C23.4758 147.022 24.2858 146.806 25.0178 146.374C25.7618 145.93 26.3498 145.336 26.7818 144.592C27.2258 143.836 27.4478 142.984 27.4478 142.036C27.4478 141.088 27.2258 140.242 26.7818 139.498C26.3498 138.742 25.7618 138.148 25.0178 137.716C24.2858 137.272 23.4758 137.05 22.5878 137.05H16.7738V147.022ZM48.456 142H50.976V160H48.456L48.366 156.652C47.778 157.792 46.956 158.716 45.9 159.424C44.844 160.12 43.584 160.468 42.12 160.468C40.8 160.468 39.564 160.222 38.412 159.73C37.26 159.226 36.246 158.536 35.37 157.66C34.494 156.784 33.81 155.77 33.318 154.618C32.826 153.466 32.58 152.23 32.58 150.91C32.58 149.614 32.82 148.396 33.3 147.256C33.792 146.116 34.464 145.114 35.316 144.25C36.18 143.386 37.176 142.714 38.304 142.234C39.444 141.742 40.662 141.496 41.958 141.496C43.458 141.496 44.766 141.856 45.882 142.576C46.998 143.284 47.886 144.214 48.546 145.366L48.456 142ZM42.066 158.02C43.35 158.02 44.454 157.708 45.378 157.084C46.302 156.448 47.01 155.596 47.502 154.528C48.006 153.46 48.258 152.284 48.258 151C48.258 149.68 48.006 148.492 47.502 147.436C46.998 146.368 46.284 145.522 45.36 144.898C44.436 144.274 43.338 143.962 42.066 143.962C40.794 143.962 39.63 144.28 38.574 144.916C37.53 145.54 36.696 146.386 36.072 147.454C35.46 148.522 35.154 149.704 35.154 151C35.154 152.308 35.472 153.496 36.108 154.564C36.744 155.62 37.584 156.46 38.628 157.084C39.684 157.708 40.83 158.02 42.066 158.02ZM69.0404 133H71.5604V160H69.0404V156.634C68.4164 157.786 67.5584 158.716 66.4664 159.424C65.3864 160.12 64.1024 160.468 62.6144 160.468C61.3064 160.468 60.0824 160.222 58.9424 159.73C57.8024 159.238 56.7944 158.56 55.9184 157.696C55.0544 156.82 54.3764 155.812 53.8844 154.672C53.3924 153.532 53.1464 152.308 53.1464 151C53.1464 149.692 53.3924 148.468 53.8844 147.328C54.3764 146.176 55.0544 145.168 55.9184 144.304C56.7944 143.428 57.8024 142.744 58.9424 142.252C60.0824 141.76 61.3064 141.514 62.6144 141.514C64.1024 141.514 65.3864 141.868 66.4664 142.576C67.5584 143.272 68.4164 144.19 69.0404 145.33V133ZM62.6324 158.02C63.9164 158.02 65.0204 157.708 65.9444 157.084C66.8684 156.448 67.5764 155.596 68.0684 154.528C68.5724 153.46 68.8244 152.284 68.8244 151C68.8244 149.68 68.5724 148.492 68.0684 147.436C67.5644 146.368 66.8504 145.522 65.9264 144.898C65.0024 144.274 63.9044 143.962 62.6324 143.962C61.3604 143.962 60.2024 144.28 59.1584 144.916C58.1144 145.54 57.2804 146.386 56.6564 147.454C56.0324 148.522 55.7204 149.704 55.7204 151C55.7204 152.308 56.0384 153.496 56.6744 154.564C57.3104 155.62 58.1504 156.46 59.1944 157.084C60.2504 157.708 61.3964 158.02 62.6324 158.02ZM75.8827 142H78.4027V160H75.8827V142ZM77.1607 138.85C76.7527 138.85 76.4047 138.718 76.1167 138.454C75.8407 138.178 75.7027 137.836 75.7027 137.428C75.7027 137.02 75.8407 136.684 76.1167 136.42C76.4047 136.144 76.7527 136.006 77.1607 136.006C77.5567 136.006 77.8927 136.144 78.1687 136.42C78.4567 136.684 78.6007 137.02 78.6007 137.428C78.6007 137.836 78.4627 138.178 78.1867 138.454C77.9107 138.718 77.5687 138.85 77.1607 138.85ZM90.4823 160.468C88.8263 160.468 87.3143 160.042 85.9463 159.19C84.5903 158.338 83.5043 157.198 82.6883 155.77C81.8843 154.33 81.4823 152.74 81.4823 151C81.4823 149.68 81.7163 148.45 82.1843 147.31C82.6523 146.158 83.2943 145.15 84.1103 144.286C84.9383 143.41 85.8983 142.726 86.9903 142.234C88.0823 141.742 89.2463 141.496 90.4823 141.496C92.1383 141.496 93.6443 141.922 95.0003 142.774C96.3683 143.626 97.4543 144.772 98.2583 146.212C99.0743 147.652 99.4823 149.248 99.4823 151C99.4823 152.308 99.2483 153.532 98.7803 154.672C98.3123 155.812 97.6643 156.82 96.8363 157.696C96.0203 158.56 95.0663 159.238 93.9743 159.73C92.8943 160.222 91.7303 160.468 90.4823 160.468ZM90.4823 157.948C91.7063 157.948 92.8043 157.63 93.7763 156.994C94.7603 156.346 95.5343 155.494 96.0983 154.438C96.6743 153.382 96.9623 152.236 96.9623 151C96.9623 149.74 96.6743 148.582 96.0983 147.526C95.5223 146.458 94.7423 145.606 93.7583 144.97C92.7863 144.334 91.6943 144.016 90.4823 144.016C89.2583 144.016 88.1543 144.34 87.1703 144.988C86.1983 145.624 85.4243 146.47 84.8483 147.526C84.2843 148.582 84.0023 149.74 84.0023 151C84.0023 152.296 84.2963 153.472 84.8843 154.528C85.4723 155.572 86.2583 156.406 87.2423 157.03C88.2263 157.642 89.3063 157.948 90.4823 157.948ZM127.051 148.858V160H124.531V149.362C124.531 148.378 124.291 147.484 123.811 146.68C123.331 145.876 122.689 145.234 121.885 144.754C121.081 144.274 120.187 144.034 119.203 144.034C118.231 144.034 117.337 144.274 116.521 144.754C115.717 145.234 115.075 145.876 114.595 146.68C114.115 147.484 113.875 148.378 113.875 149.362V160H111.355V142H113.875V144.484C114.511 143.572 115.339 142.846 116.359 142.306C117.379 141.766 118.489 141.496 119.689 141.496C121.045 141.496 122.281 141.826 123.397 142.486C124.513 143.146 125.401 144.034 126.061 145.15C126.721 146.266 127.051 147.502 127.051 148.858ZM138.225 160.468C136.569 160.468 135.057 160.042 133.689 159.19C132.333 158.338 131.247 157.198 130.431 155.77C129.627 154.33 129.225 152.74 129.225 151C129.225 149.68 129.459 148.45 129.927 147.31C130.395 146.158 131.037 145.15 131.853 144.286C132.681 143.41 133.641 142.726 134.733 142.234C135.825 141.742 136.989 141.496 138.225 141.496C139.881 141.496 141.387 141.922 142.743 142.774C144.111 143.626 145.197 144.772 146.001 146.212C146.817 147.652 147.225 149.248 147.225 151C147.225 152.308 146.991 153.532 146.523 154.672C146.055 155.812 145.407 156.82 144.579 157.696C143.763 158.56 142.809 159.238 141.717 159.73C140.637 160.222 139.473 160.468 138.225 160.468ZM138.225 157.948C139.449 157.948 140.547 157.63 141.519 156.994C142.503 156.346 143.277 155.494 143.841 154.438C144.417 153.382 144.705 152.236 144.705 151C144.705 149.74 144.417 148.582 143.841 147.526C143.265 146.458 142.485 145.606 141.501 144.97C140.529 144.334 139.437 144.016 138.225 144.016C137.001 144.016 135.897 144.34 134.913 144.988C133.941 145.624 133.167 146.47 132.591 147.526C132.027 148.582 131.745 149.74 131.745 151C131.745 152.296 132.039 153.472 132.627 154.528C133.215 155.572 134.001 156.406 134.985 157.03C135.969 157.642 137.049 157.948 138.225 157.948ZM159.155 144.52H154.853L154.835 160H152.315L152.333 144.52H149.075V142H152.333L152.315 136.348H154.835L154.853 142H159.155V144.52ZM178.557 160H175.965L169.935 142H172.401L177.297 156.508L182.157 142H184.821L189.681 156.508L194.541 142H197.025L190.995 160H188.385L183.453 145.348L178.557 160ZM207.236 160.468C205.58 160.468 204.068 160.042 202.7 159.19C201.344 158.338 200.258 157.198 199.442 155.77C198.638 154.33 198.236 152.74 198.236 151C198.236 149.68 198.47 148.45 198.938 147.31C199.406 146.158 200.048 145.15 200.864 144.286C201.692 143.41 202.652 142.726 203.744 142.234C204.836 141.742 206 141.496 207.236 141.496C208.892 141.496 210.398 141.922 211.754 142.774C213.122 143.626 214.208 144.772 215.012 146.212C215.828 147.652 216.236 149.248 216.236 151C216.236 152.308 216.002 153.532 215.534 154.672C215.066 155.812 214.418 156.82 213.59 157.696C212.774 158.56 211.82 159.238 210.728 159.73C209.648 160.222 208.484 160.468 207.236 160.468ZM207.236 157.948C208.46 157.948 209.558 157.63 210.53 156.994C211.514 156.346 212.288 155.494 212.852 154.438C213.428 153.382 213.716 152.236 213.716 151C213.716 149.74 213.428 148.582 212.852 147.526C212.276 146.458 211.496 145.606 210.512 144.97C209.54 144.334 208.448 144.016 207.236 144.016C206.012 144.016 204.908 144.34 203.924 144.988C202.952 145.624 202.178 146.47 201.602 147.526C201.038 148.582 200.756 149.74 200.756 151C200.756 152.296 201.05 153.472 201.638 154.528C202.226 155.572 203.012 156.406 203.996 157.03C204.98 157.642 206.06 157.948 207.236 157.948ZM219.285 160V142H221.805V144.484C222.441 143.572 223.269 142.846 224.289 142.306C225.309 141.766 226.419 141.496 227.619 141.496C228.315 141.496 228.987 141.586 229.635 141.766L228.609 144.268C228.105 144.112 227.613 144.034 227.133 144.034C226.161 144.034 225.267 144.274 224.451 144.754C223.647 145.234 223.005 145.876 222.525 146.68C222.045 147.484 221.805 148.378 221.805 149.362V160H219.285ZM245.788 160H242.89L237.85 151.306L234.25 155.608V160H231.73V133H234.25V151.684L242.368 142H245.662L239.56 149.254L245.788 160ZM249.168 142H251.688V160H249.168V142ZM250.446 138.85C250.038 138.85 249.69 138.718 249.402 138.454C249.126 138.178 248.988 137.836 248.988 137.428C248.988 137.02 249.126 136.684 249.402 136.42C249.69 136.144 250.038 136.006 250.446 136.006C250.842 136.006 251.178 136.144 251.454 136.42C251.742 136.684 251.886 137.02 251.886 137.428C251.886 137.836 251.748 138.178 251.472 138.454C251.196 138.718 250.854 138.85 250.446 138.85ZM271.649 148.858V160H269.129V149.362C269.129 148.378 268.889 147.484 268.409 146.68C267.929 145.876 267.287 145.234 266.483 144.754C265.679 144.274 264.785 144.034 263.801 144.034C262.829 144.034 261.935 144.274 261.119 144.754C260.315 145.234 259.673 145.876 259.193 146.68C258.713 147.484 258.473 148.378 258.473 149.362V160H255.953V142H258.473V144.484C259.109 143.572 259.937 142.846 260.957 142.306C261.977 141.766 263.087 141.496 264.287 141.496C265.643 141.496 266.879 141.826 267.995 142.486C269.111 143.146 269.999 144.034 270.659 145.15C271.319 146.266 271.649 147.502 271.649 148.858ZM289.212 142H291.732V160.666C291.732 161.818 291.48 162.898 290.976 163.906C290.484 164.914 289.812 165.796 288.96 166.552C288.12 167.32 287.16 167.92 286.08 168.352C285 168.784 283.878 169 282.714 169C281.466 169 280.26 168.712 279.096 168.136C277.932 167.572 276.918 166.816 276.054 165.868C275.202 164.92 274.596 163.87 274.236 162.718L276.558 161.656C276.786 162.556 277.212 163.366 277.836 164.086C278.472 164.818 279.216 165.394 280.068 165.814C280.932 166.246 281.814 166.462 282.714 166.462C283.542 166.462 284.34 166.306 285.108 165.994C285.888 165.694 286.584 165.28 287.196 164.752C287.82 164.224 288.312 163.606 288.672 162.898C289.032 162.202 289.212 161.458 289.212 160.666V156.688C288.588 157.816 287.742 158.728 286.674 159.424C285.618 160.12 284.388 160.468 282.984 160.468C281.724 160.468 280.536 160.222 279.42 159.73C278.316 159.238 277.344 158.56 276.504 157.696C275.664 156.82 275.004 155.812 274.524 154.672C274.056 153.532 273.822 152.308 273.822 151C273.822 149.692 274.056 148.468 274.524 147.328C275.004 146.176 275.664 145.168 276.504 144.304C277.344 143.428 278.316 142.744 279.42 142.252C280.536 141.76 281.724 141.514 282.984 141.514C284.388 141.514 285.618 141.862 286.674 142.558C287.742 143.242 288.588 144.154 289.212 145.294V142ZM283.002 158.02C284.25 158.02 285.324 157.696 286.224 157.048C287.136 156.4 287.838 155.542 288.33 154.474C288.822 153.406 289.068 152.248 289.068 151C289.068 149.716 288.816 148.546 288.312 147.49C287.82 146.422 287.118 145.57 286.206 144.934C285.294 144.286 284.226 143.962 283.002 143.962C281.778 143.962 280.662 144.28 279.654 144.916C278.658 145.54 277.866 146.386 277.278 147.454C276.69 148.522 276.396 149.704 276.396 151C276.396 152.296 276.696 153.478 277.296 154.546C277.896 155.602 278.694 156.448 279.69 157.084C280.698 157.708 281.802 158.02 283.002 158.02Z" fill="white"/>
</g>
</svg>
