<svg width="100" height="100" viewBox="0 0 100 100" fill="none" xmlns="http://www.w3.org/2000/svg">
<path d="M15.5714 95C13.2143 95 11.1964 94.1607 9.51786 92.4821C7.83929 90.8036 7 88.7857 7 86.4286V29.2143L66.5714 5L69.3571 12.0714L34 26.4286H84.1429C86.5 26.4286 88.5179 27.2679 90.1964 28.9464C91.875 30.625 92.7143 32.6429 92.7143 35V86.4286C92.7143 88.7857 91.875 90.8036 90.1964 92.4821C88.5179 94.1607 86.5 95 84.1429 95H15.5714ZM32.7143 82.1429C35.7143 82.1429 38.25 81.1071 40.3214 79.0357C42.3929 76.9643 43.4286 74.4286 43.4286 71.4286C43.4286 68.4286 42.3929 65.8929 40.3214 63.8214C38.25 61.75 35.7143 60.7143 32.7143 60.7143C29.7143 60.7143 27.1786 61.75 25.1071 63.8214C23.0357 65.8929 22 68.4286 22 71.4286C22 74.4286 23.0357 76.9643 25.1071 79.0357C27.1786 81.1071 29.7143 82.1429 32.7143 82.1429ZM15.5714 47.8571H67V39.2857H75.5714V47.8571H84.1429V35H15.5714V47.8571Z" fill="white" fill-opacity="0.3"/>
</svg>
