<svg width="272" height="78" viewBox="0 0 272 78" fill="none" xmlns="http://www.w3.org/2000/svg">
<rect width="272" height="78" rx="10" fill="#2272A7"/>
<path d="M77.2873 50V29H89.6023V31.52H79.8073V37.49H88.1623V40.01H79.8073V50H77.2873ZM102.384 35H104.904V50H102.384L102.279 47.465C101.809 48.335 101.159 49.04 100.329 49.58C99.5094 50.12 98.5294 50.39 97.3894 50.39C96.2894 50.39 95.2594 50.185 94.2994 49.775C93.3394 49.355 92.4894 48.78 91.7494 48.05C91.0194 47.31 90.4494 46.46 90.0394 45.5C89.6294 44.54 89.4244 43.505 89.4244 42.395C89.4244 41.325 89.6244 40.315 90.0244 39.365C90.4244 38.415 90.9794 37.585 91.6894 36.875C92.4094 36.155 93.2394 35.595 94.1794 35.195C95.1194 34.785 96.1294 34.58 97.2094 34.58C98.3894 34.58 99.4244 34.86 100.314 35.42C101.204 35.97 101.924 36.685 102.474 37.565L102.384 35ZM97.3444 47.945C98.3344 47.945 99.1894 47.705 99.9094 47.225C100.639 46.735 101.199 46.075 101.589 45.245C101.989 44.415 102.189 43.5 102.189 42.5C102.189 41.48 101.989 40.56 101.589 39.74C101.189 38.91 100.624 38.255 99.8944 37.775C99.1744 37.285 98.3244 37.04 97.3444 37.04C96.3544 37.04 95.4544 37.285 94.6444 37.775C93.8344 38.265 93.1894 38.925 92.7094 39.755C92.2394 40.575 92.0044 41.49 92.0044 42.5C92.0044 43.51 92.2494 44.43 92.7394 45.26C93.2294 46.08 93.8794 46.735 94.6894 47.225C95.4994 47.705 96.3844 47.945 97.3444 47.945ZM115.292 50H112.067L106.592 34.97H109.277L113.672 47.075L118.067 34.97H120.752L115.292 50ZM129.21 50.39C127.83 50.39 126.57 50.035 125.43 49.325C124.3 48.615 123.395 47.665 122.715 46.475C122.045 45.275 121.71 43.95 121.71 42.5C121.71 41.4 121.905 40.375 122.295 39.425C122.685 38.465 123.22 37.625 123.9 36.905C124.59 36.175 125.39 35.605 126.3 35.195C127.21 34.785 128.18 34.58 129.21 34.58C130.59 34.58 131.845 34.935 132.975 35.645C134.115 36.355 135.02 37.31 135.69 38.51C136.37 39.71 136.71 41.04 136.71 42.5C136.71 43.59 136.515 44.61 136.125 45.56C135.735 46.51 135.195 47.35 134.505 48.08C133.825 48.8 133.03 49.365 132.12 49.775C131.22 50.185 130.25 50.39 129.21 50.39ZM129.21 47.87C130.15 47.87 130.995 47.625 131.745 47.135C132.505 46.635 133.1 45.98 133.53 45.17C133.97 44.35 134.19 43.46 134.19 42.5C134.19 41.52 133.965 40.62 133.515 39.8C133.075 38.98 132.48 38.325 131.73 37.835C130.98 37.345 130.14 37.1 129.21 37.1C128.27 37.1 127.425 37.35 126.675 37.85C125.925 38.34 125.33 38.995 124.89 39.815C124.45 40.635 124.23 41.53 124.23 42.5C124.23 43.5 124.455 44.41 124.905 45.23C125.355 46.04 125.96 46.685 126.72 47.165C127.48 47.635 128.31 47.87 129.21 47.87ZM138.387 44.3V35H140.907V43.745C140.907 44.505 141.092 45.195 141.462 45.815C141.832 46.435 142.327 46.93 142.947 47.3C143.577 47.66 144.267 47.84 145.017 47.84C145.777 47.84 146.462 47.66 147.072 47.3C147.692 46.93 148.187 46.435 148.557 45.815C148.927 45.195 149.112 44.505 149.112 43.745V35H151.632L151.647 50H149.127L149.112 48.095C148.582 48.795 147.912 49.355 147.102 49.775C146.292 50.185 145.417 50.39 144.477 50.39C143.357 50.39 142.332 50.12 141.402 49.58C140.482 49.03 139.747 48.295 139.197 47.375C138.657 46.455 138.387 45.43 138.387 44.3ZM154.66 50V35H157.18V36.875C157.71 36.175 158.38 35.62 159.19 35.21C160 34.79 160.88 34.58 161.83 34.58C162.41 34.58 162.97 34.655 163.51 34.805L162.49 37.325C162.08 37.195 161.68 37.13 161.29 37.13C160.54 37.13 159.85 37.315 159.22 37.685C158.6 38.045 158.105 38.535 157.735 39.155C157.365 39.775 157.18 40.465 157.18 41.225V50H154.66ZM165.354 35H167.874V50H165.354V35ZM166.644 32.555C166.244 32.555 165.909 32.425 165.639 32.165C165.369 31.905 165.234 31.58 165.234 31.19C165.234 30.8 165.369 30.475 165.639 30.215C165.909 29.955 166.239 29.825 166.629 29.825C167.019 29.825 167.349 29.955 167.619 30.215C167.889 30.475 168.024 30.8 168.024 31.19C168.024 31.58 167.889 31.905 167.619 32.165C167.359 32.425 167.034 32.555 166.644 32.555ZM179.247 37.52H175.842L175.827 50H173.307L173.322 37.52H170.742V35H173.322L173.307 30.29H175.827L175.842 35H179.247V37.52ZM188.155 50.39C186.775 50.39 185.515 50.035 184.375 49.325C183.245 48.615 182.34 47.665 181.66 46.475C180.99 45.275 180.655 43.95 180.655 42.5C180.655 41.4 180.85 40.375 181.24 39.425C181.63 38.465 182.165 37.625 182.845 36.905C183.535 36.175 184.335 35.605 185.245 35.195C186.155 34.785 187.125 34.58 188.155 34.58C189.285 34.58 190.32 34.81 191.26 35.27C192.21 35.72 193.02 36.35 193.69 37.16C194.37 37.97 194.875 38.91 195.205 39.98C195.545 41.05 195.67 42.195 195.58 43.415H183.34C183.46 44.265 183.74 45.025 184.18 45.695C184.62 46.355 185.18 46.88 185.86 47.27C186.55 47.66 187.315 47.86 188.155 47.87C189.055 47.87 189.87 47.64 190.6 47.18C191.33 46.71 191.92 46.07 192.37 45.26L194.935 45.86C194.335 47.19 193.43 48.28 192.22 49.13C191.01 49.97 189.655 50.39 188.155 50.39ZM183.265 41.435H193.045C192.965 40.595 192.695 39.83 192.235 39.14C191.775 38.44 191.19 37.88 190.48 37.46C189.77 37.04 188.995 36.83 188.155 36.83C187.315 36.83 186.545 37.035 185.845 37.445C185.145 37.855 184.565 38.41 184.105 39.11C183.655 39.8 183.375 40.575 183.265 41.435Z" fill="white"/>
</svg>
