<svg width="216" height="78" viewBox="0 0 216 78" fill="none" xmlns="http://www.w3.org/2000/svg">
<rect width="216" height="78" rx="10" fill="#2272A7"/>
<path d="M93.0629 29V31.52H86.0729V50H83.5529V31.52H76.5779V29H93.0629ZM93.4236 44.3V35H95.9436V43.745C95.9436 44.505 96.1286 45.195 96.4986 45.815C96.8686 46.435 97.3636 46.93 97.9836 47.3C98.6136 47.66 99.3036 47.84 100.054 47.84C100.814 47.84 101.499 47.66 102.109 47.3C102.729 46.93 103.224 46.435 103.594 45.815C103.964 45.195 104.149 44.505 104.149 43.745V35H106.669L106.684 50H104.164L104.149 48.095C103.619 48.795 102.949 49.355 102.139 49.775C101.329 50.185 100.454 50.39 99.5136 50.39C98.3936 50.39 97.3686 50.12 96.4386 49.58C95.5186 49.03 94.7836 48.295 94.2336 47.375C93.6936 46.455 93.4236 45.43 93.4236 44.3ZM122.957 40.67V50H120.437V41.225C120.437 40.465 120.252 39.775 119.882 39.155C119.512 38.535 119.017 38.045 118.397 37.685C117.777 37.315 117.087 37.13 116.327 37.13C115.577 37.13 114.887 37.315 114.257 37.685C113.637 38.045 113.142 38.535 112.772 39.155C112.402 39.775 112.217 40.465 112.217 41.225V50H109.697V35H112.217V36.875C112.747 36.175 113.417 35.62 114.227 35.21C115.037 34.79 115.917 34.58 116.867 34.58C117.987 34.58 119.007 34.855 119.927 35.405C120.857 35.945 121.592 36.675 122.132 37.595C122.682 38.515 122.957 39.54 122.957 40.67ZM132.264 50.39C130.884 50.39 129.624 50.035 128.484 49.325C127.354 48.615 126.449 47.665 125.769 46.475C125.099 45.275 124.764 43.95 124.764 42.5C124.764 41.4 124.959 40.375 125.349 39.425C125.739 38.465 126.274 37.625 126.954 36.905C127.644 36.175 128.444 35.605 129.354 35.195C130.264 34.785 131.234 34.58 132.264 34.58C133.394 34.58 134.429 34.81 135.369 35.27C136.319 35.72 137.129 36.35 137.799 37.16C138.479 37.97 138.984 38.91 139.314 39.98C139.654 41.05 139.779 42.195 139.689 43.415H127.449C127.569 44.265 127.849 45.025 128.289 45.695C128.729 46.355 129.289 46.88 129.969 47.27C130.659 47.66 131.424 47.86 132.264 47.87C133.164 47.87 133.979 47.64 134.709 47.18C135.439 46.71 136.029 46.07 136.479 45.26L139.044 45.86C138.444 47.19 137.539 48.28 136.329 49.13C135.119 49.97 133.764 50.39 132.264 50.39ZM127.374 41.435H137.154C137.074 40.595 136.804 39.83 136.344 39.14C135.884 38.44 135.299 37.88 134.589 37.46C133.879 37.04 133.104 36.83 132.264 36.83C131.424 36.83 130.654 37.035 129.954 37.445C129.254 37.855 128.674 38.41 128.214 39.11C127.764 39.8 127.484 40.575 127.374 41.435Z" fill="white"/>
</svg>
