<svg width="48" height="48" viewBox="0 0 48 48" fill="none" xmlns="http://www.w3.org/2000/svg">
<path d="M22.6171 26.9874V5H25.3829V26.9874H22.6171ZM24 43C21.3143 43 18.8207 42.5119 16.5191 41.5357C14.2174 40.5596 12.2134 39.2236 10.5068 37.5278C8.8003 35.832 7.45587 33.8405 6.47352 31.5534C5.49117 29.2662 5 26.7852 5 24.1102C5 21.2485 5.64135 18.5231 6.92405 15.934C8.20675 13.3449 9.95042 11.174 12.1551 9.42138L13.7785 11.0346C11.8945 12.7075 10.4214 14.6792 9.35918 16.9497C8.29694 19.2201 7.76582 21.6101 7.76582 24.1195C7.76582 28.5807 9.35415 32.3847 12.5308 35.5314C15.7075 38.6782 19.5261 40.2516 23.9867 40.2516C28.485 40.2516 32.3175 38.6782 35.4842 35.5314C38.6508 32.3847 40.2342 28.5807 40.2342 24.1195C40.2342 21.6163 39.7031 19.228 38.6408 16.9544C37.5786 14.6808 36.0854 12.7075 34.1614 11.0346L35.7848 9.42138C38.1498 11.2138 39.9436 13.3907 41.1661 15.952C42.3887 18.5133 43 21.2358 43 24.1195C43 26.7883 42.517 29.2662 41.551 31.5534C40.5849 33.8405 39.2247 35.832 37.4703 37.5278C35.716 39.2236 33.6837 40.5596 31.3735 41.5357C29.0633 42.5119 26.6055 43 24 43Z" fill="white"/>
</svg>
