<svg width="48" height="48" viewBox="0 0 48 48" fill="none" xmlns="http://www.w3.org/2000/svg">
<path d="M35.2077 33.6658V28.2011H29.743V25.8735H35.2077V20.4088H37.5353V25.8735H43V28.2011H37.5353V33.6658H35.2077ZM23.5 41C18.7437 36.6147 17.4052 35.2765 14.5885 32.4261C11.7719 29.5757 9.67199 27.1975 8.28895 25.2916C6.9059 23.3857 6.01198 21.7765 5.60719 20.464C5.2024 19.1516 5 17.8513 5 16.5632C5 13.917 5.93609 11.6615 7.80826 9.79692C9.68043 7.93231 11.9321 7 14.5632 7C16.115 7 17.6751 7.43853 19.2437 8.31558C20.8123 9.19263 22.2037 10.4407 23.4181 12.0599C24.6662 10.4407 26.0661 9.19263 27.6178 8.31558C29.1696 7.43853 30.7213 7 32.273 7C35.0812 7 37.5374 8.04572 39.6415 10.1372C41.7456 12.2286 42.6289 15.1465 42.2916 18.8908C41.0435 18.1824 40.0062 17.668 39.1798 17.3475C38.3533 17.0271 37.3498 16.8668 36.1691 16.8668C33.35 16.8668 30.967 17.8535 29.0201 19.8267C27.0733 21.7999 26.0999 24.2203 26.0999 27.0879C26.0999 28.5721 26.4372 29.9805 27.1119 31.3129C27.7865 32.6454 28.7479 33.767 29.996 34.6778C29.3214 35.3524 28.5118 36.1536 27.5672 37.0812C26.6227 38.0089 25.7119 38.8944 24.8349 39.7377L23.5 41Z" fill="white" fill-opacity="0.3"/>
</svg>
