<svg width="225" height="64" viewBox="0 0 225 64" fill="none" xmlns="http://www.w3.org/2000/svg">
<path d="M20.0922 53.1229H54.6816C56.488 53.1229 57.9927 52.5214 59.1956 51.3185C60.3985 50.1156 61 48.6109 61 46.8045V40.081H20.0922V53.1229ZM3 24.0419H16.3659V11H9.31844C7.51201 11 6.00733 11.6015 4.8044 12.8044C3.60147 14.0073 3 15.512 3 17.3184V24.0419ZM3 38.5419H16.3659V25.662H3V38.5419ZM9.31844 53.1229H16.3659V40.081H3V46.8216C3 48.6328 3.60147 50.1358 4.8044 51.3307C6.00733 52.5255 7.51201 53.1229 9.31844 53.1229ZM20.0922 38.5419H61V25.662H20.0922V38.5419ZM20.0922 24.0419H61V17.3013C61 15.4901 60.3985 13.9871 59.1956 12.7922C57.9927 11.5974 56.488 11 54.6816 11H20.0922V24.0419Z" fill="white"/>
<path d="M81.7 48V16.5H92.5675C94.1275 16.5 95.545 16.8225 96.82 17.4675C98.11 18.0975 99.13 19.02 99.88 20.235C100.63 21.45 101.005 22.905 101.005 24.6C101.005 25.515 100.848 26.4 100.533 27.255C100.233 28.095 99.8125 28.8225 99.2725 29.4375C98.7475 30.0375 98.1475 30.4425 97.4725 30.6525C98.4175 30.8925 99.22 31.32 99.88 31.935C100.54 32.535 101.073 33.24 101.478 34.05C101.898 34.86 102.198 35.7075 102.378 36.5925C102.558 37.4775 102.647 38.3325 102.647 39.1575C102.647 40.8975 102.25 42.435 101.455 43.77C100.675 45.09 99.625 46.125 98.305 46.875C96.985 47.625 95.53 48 93.94 48H81.7ZM85.48 44.67H93.6025C94.6375 44.67 95.575 44.4075 96.415 43.8825C97.27 43.3425 97.9525 42.6075 98.4625 41.6775C98.9725 40.7475 99.2275 39.6975 99.2275 38.5275C99.2275 37.4925 98.9725 36.5175 98.4625 35.6025C97.9525 34.6725 97.27 33.9225 96.415 33.3525C95.575 32.7825 94.6375 32.4975 93.6025 32.4975H85.48V44.67ZM85.48 29.235H92.2075C93.5875 29.235 94.765 28.83 95.74 28.02C96.73 27.195 97.225 26.0475 97.225 24.5775C97.225 22.9875 96.73 21.8025 95.74 21.0225C94.765 20.2275 93.5875 19.83 92.2075 19.83H85.48V29.235ZM107.144 48V25.5H110.924V28.3125C111.719 27.2625 112.724 26.43 113.939 25.815C115.154 25.185 116.474 24.87 117.899 24.87C118.769 24.87 119.609 24.9825 120.419 25.2075L118.889 28.9875C118.274 28.7925 117.674 28.695 117.089 28.695C115.964 28.695 114.929 28.9725 113.984 29.5275C113.054 30.0675 112.312 30.8025 111.757 31.7325C111.202 32.6625 110.924 33.6975 110.924 34.8375V48H107.144ZM131.942 48.585C129.872 48.585 127.982 48.0525 126.272 46.9875C124.577 45.9225 123.219 44.4975 122.199 42.7125C121.194 40.9125 120.692 38.925 120.692 36.75C120.692 35.1 120.984 33.5625 121.569 32.1375C122.154 30.6975 122.957 29.4375 123.977 28.3575C125.012 27.2625 126.212 26.4075 127.577 25.7925C128.942 25.1775 130.397 24.87 131.942 24.87C134.012 24.87 135.894 25.4025 137.589 26.4675C139.299 27.5325 140.657 28.965 141.662 30.765C142.682 32.565 143.192 34.56 143.192 36.75C143.192 38.385 142.899 39.915 142.314 41.34C141.729 42.765 140.919 44.025 139.884 45.12C138.864 46.2 137.672 47.0475 136.307 47.6625C134.957 48.2775 133.502 48.585 131.942 48.585ZM131.942 44.805C133.352 44.805 134.619 44.4375 135.744 43.7025C136.884 42.9525 137.777 41.97 138.422 40.755C139.082 39.525 139.412 38.19 139.412 36.75C139.412 35.28 139.074 33.93 138.399 32.7C137.739 31.47 136.847 30.4875 135.722 29.7525C134.597 29.0175 133.337 28.65 131.942 28.65C130.532 28.65 129.264 29.025 128.139 29.775C127.014 30.51 126.122 31.4925 125.462 32.7225C124.802 33.9525 124.472 35.295 124.472 36.75C124.472 38.25 124.809 39.615 125.484 40.845C126.159 42.06 127.067 43.0275 128.207 43.7475C129.347 44.4525 130.592 44.805 131.942 44.805ZM155.961 48H152.136L144.598 25.5H148.288L154.093 42.6675L159.831 25.5H163.723L169.483 42.6675L175.221 25.5H178.956L171.418 48H167.571L161.743 30.675L155.961 48ZM189.329 48.4275C188.114 48.3825 186.929 48.1575 185.774 47.7525C184.634 47.3325 183.629 46.77 182.759 46.065C181.904 45.345 181.282 44.52 180.892 43.59L184.132 42.195C184.357 42.705 184.762 43.185 185.347 43.635C185.932 44.085 186.607 44.445 187.372 44.715C188.137 44.985 188.909 45.12 189.689 45.12C190.514 45.12 191.287 44.9925 192.007 44.7375C192.727 44.4825 193.312 44.1075 193.762 43.6125C194.227 43.1025 194.459 42.495 194.459 41.79C194.459 41.04 194.204 40.455 193.694 40.035C193.199 39.6 192.569 39.2625 191.804 39.0225C191.054 38.7675 190.289 38.5275 189.509 38.3025C187.964 37.9125 186.584 37.4475 185.369 36.9075C184.154 36.3525 183.194 35.655 182.489 34.815C181.799 33.96 181.454 32.8725 181.454 31.5525C181.454 30.1575 181.837 28.95 182.602 27.93C183.382 26.91 184.402 26.1225 185.662 25.5675C186.922 25.0125 188.272 24.735 189.712 24.735C191.527 24.735 193.184 25.125 194.684 25.905C196.184 26.685 197.302 27.7425 198.037 29.0775L194.999 30.855C194.744 30.315 194.354 29.8425 193.829 29.4375C193.304 29.0175 192.704 28.6875 192.029 28.4475C191.354 28.2075 190.664 28.08 189.959 28.065C189.089 28.035 188.272 28.1475 187.507 28.4025C186.757 28.6575 186.149 29.0475 185.684 29.5725C185.234 30.0825 185.009 30.72 185.009 31.485C185.009 32.235 185.249 32.805 185.729 33.195C186.224 33.585 186.862 33.9 187.642 34.14C188.437 34.365 189.299 34.6275 190.229 34.9275C191.594 35.3625 192.869 35.865 194.054 36.435C195.239 37.005 196.192 37.7175 196.912 38.5725C197.647 39.4275 198.007 40.485 197.992 41.745C197.992 43.125 197.579 44.3325 196.754 45.3675C195.929 46.3875 194.857 47.1675 193.537 47.7075C192.232 48.2475 190.829 48.4875 189.329 48.4275ZM211.527 48.585C209.457 48.585 207.567 48.0525 205.857 46.9875C204.162 45.9225 202.804 44.4975 201.784 42.7125C200.779 40.9125 200.277 38.925 200.277 36.75C200.277 35.1 200.569 33.5625 201.154 32.1375C201.739 30.6975 202.542 29.4375 203.562 28.3575C204.597 27.2625 205.797 26.4075 207.162 25.7925C208.527 25.1775 209.982 24.87 211.527 24.87C213.222 24.87 214.774 25.215 216.184 25.905C217.609 26.58 218.824 27.525 219.829 28.74C220.849 29.955 221.607 31.365 222.102 32.97C222.612 34.575 222.799 36.2925 222.664 38.1225H204.304C204.484 39.3975 204.904 40.5375 205.564 41.5425C206.224 42.5325 207.064 43.32 208.084 43.905C209.119 44.49 210.267 44.79 211.527 44.805C212.877 44.805 214.099 44.46 215.194 43.77C216.289 43.065 217.174 42.105 217.849 40.89L221.697 41.79C220.797 43.785 219.439 45.42 217.624 46.695C215.809 47.955 213.777 48.585 211.527 48.585ZM204.192 35.1525H218.862C218.742 33.8925 218.337 32.745 217.647 31.71C216.957 30.66 216.079 29.82 215.014 29.19C213.949 28.56 212.787 28.245 211.527 28.245C210.267 28.245 209.112 28.5525 208.062 29.1675C207.012 29.7825 206.142 30.615 205.452 31.665C204.777 32.7 204.357 33.8625 204.192 35.1525Z" fill="white"/>
</svg>
