<svg width="48" height="48" viewBox="0 0 48 48" fill="none" xmlns="http://www.w3.org/2000/svg">
<path d="M21.5534 36H26.5631V21.6699H21.5534V36ZM23.9898 16.7498C24.6852 16.7498 25.2715 16.5146 25.7487 16.0442C26.2259 15.5738 26.4645 14.991 26.4645 14.2956C26.4645 13.6002 26.2293 13.0139 25.7589 12.5367C25.2885 12.0594 24.7056 11.8208 24.0102 11.8208C23.3148 11.8208 22.7285 12.0561 22.2513 12.5265C21.7741 12.9969 21.5355 13.5798 21.5355 14.2751C21.5355 14.9705 21.7707 15.5568 22.2411 16.034C22.7115 16.5112 23.2944 16.7498 23.9898 16.7498ZM24.0039 48C20.6844 48 17.5644 47.3701 14.6436 46.1103C11.7229 44.8505 9.18227 43.1408 7.02176 40.9811C4.86122 38.8215 3.15078 36.2819 1.89047 33.3624C0.630157 30.4428 0 27.3234 0 24.0039C0 20.6745 0.63105 17.5451 1.89315 14.6156C3.15525 11.6861 4.86807 9.13789 7.03161 6.97085C9.19519 4.80386 11.7348 3.1003 14.6503 1.86018C17.5659 0.620062 20.6811 0 23.9961 0C27.3251 0 30.4542 0.61981 33.3834 1.85942C36.3125 3.09904 38.8608 4.80215 41.0283 6.96875C43.1959 9.1354 44.8997 11.6832 46.1398 14.6122C47.3799 17.5412 48 20.6707 48 24.0009C48 27.3312 47.3802 30.45 46.1406 33.3575C44.901 36.2651 43.1981 38.801 41.032 40.9655C38.8659 43.1299 36.3187 44.8435 33.3904 46.1061C30.4622 47.3687 27.3333 48 24.0039 48Z" fill="white"/>
</svg>
