<svg width="48" height="48" viewBox="0 0 48 48" fill="none" xmlns="http://www.w3.org/2000/svg">
<path d="M24 40.7198L22.4341 39.206C18.7802 35.8306 15.8049 33.0119 13.5082 30.75C11.2115 28.4881 9.43681 26.5568 8.18407 24.956C6.93132 23.3553 6.08745 21.9199 5.65247 20.6497C5.21749 19.3796 5 18.0833 5 16.761C5 14.0815 5.96566 11.7848 7.89698 9.87088C9.8283 7.95696 12.1511 7 14.8654 7C16.4661 7 18.0669 7.43498 19.6676 8.30495C21.2683 9.17491 22.7125 10.4451 24 12.1154C25.2875 10.4451 26.7317 9.17491 28.3324 8.30495C29.9332 7.43498 31.5339 7 33.1346 7C35.8489 7 38.1717 7.95696 40.103 9.87088C42.0343 11.7848 43 14.0815 43 16.761C43 18.0833 42.7912 19.3622 42.3736 20.5975C41.956 21.8329 41.1209 23.2422 39.8681 24.8255C38.6154 26.4089 36.8407 28.3489 34.544 30.6456C32.2473 32.9423 29.2198 35.8306 25.4615 39.3104L24 40.7198Z" fill="#FF0000"/>
</svg>
