<svg width="48" height="48" viewBox="0 0 48 48" fill="none" xmlns="http://www.w3.org/2000/svg">
<path fill-rule="evenodd" clip-rule="evenodd" d="M31.4581 23.7382C31.6601 23.9127 31.9016 24 32.1826 24H34.791C35.0721 24 35.3224 23.9127 35.5419 23.7382C35.7615 23.5637 35.8888 23.3434 35.924 23.0774L36.2138 20.9829C36.53 20.8832 36.833 20.7502 37.1228 20.584C37.4126 20.4178 37.7068 20.2183 38.0054 19.9856L40.0605 20.8084C40.3416 20.9248 40.6094 20.9372 40.8641 20.8458C41.1188 20.7544 41.3164 20.5923 41.457 20.3596L42.7743 18.0906C42.9148 17.8578 42.9544 17.6126 42.8929 17.355C42.8314 17.0973 42.6865 16.8854 42.4582 16.7192L40.7719 15.5472C40.7895 15.3145 40.807 15.115 40.8246 14.9488C40.8422 14.7826 40.851 14.6413 40.851 14.5249C40.851 14.392 40.8466 14.2423 40.8378 14.0761C40.829 13.9099 40.7983 13.7353 40.7456 13.5525L42.5372 12.2808C42.7655 12.1146 42.9105 11.9027 42.9719 11.645C43.0334 11.3874 42.9939 11.1422 42.8534 10.9094L41.536 8.74016C41.3955 8.50744 41.1979 8.34121 40.9432 8.24147C40.6885 8.14173 40.4206 8.15004 40.1396 8.2664L38.1372 9.03937C37.821 8.79003 37.5092 8.5864 37.2018 8.42848C36.8944 8.27056 36.5563 8.1168 36.1874 7.96719L35.924 5.92257C35.8888 5.65661 35.7571 5.43635 35.5288 5.26181C35.3004 5.08727 35.0457 5 34.7647 5H32.209C31.9279 5 31.6776 5.08727 31.4581 5.26181C31.2385 5.43635 31.1112 5.65661 31.076 5.92257L30.7862 7.91732C30.47 8.03368 30.1275 8.18745 29.7587 8.37861C29.3898 8.56977 29.0561 8.78171 28.7574 9.01444L26.8604 8.2664C26.5794 8.15004 26.3115 8.14589 26.0568 8.25394C25.8021 8.36199 25.6045 8.53237 25.464 8.76509L24.1466 10.9094C24.0061 11.1422 23.9666 11.3874 24.0281 11.645C24.0895 11.9027 24.2345 12.1146 24.4628 12.2808L26.0963 13.4278C26.0788 13.6439 26.0568 13.8392 26.0305 14.0138C26.0041 14.1883 25.991 14.3421 25.991 14.4751C25.991 14.6413 26.0041 14.8158 26.0305 14.9987C26.0568 15.1815 26.0788 15.3561 26.0963 15.5223L24.4365 16.7192C24.2081 16.8854 24.072 17.0973 24.0281 17.355C23.9842 17.6126 24.0237 17.8578 24.1466 18.0906L25.464 20.3346C25.6045 20.5674 25.8065 20.7378 26.07 20.8458C26.3335 20.9538 26.6057 20.9497 26.8868 20.8333L28.8892 20.0105C29.1175 20.2266 29.4249 20.4302 29.8113 20.6214C30.1978 20.8126 30.5227 20.9497 30.7862 21.0328L31.076 23.0774C31.1287 23.3434 31.2561 23.5637 31.4581 23.7382ZM35.5419 16.5322C34.9535 17.089 34.2289 17.3675 33.3683 17.3675C32.5251 17.3675 31.805 17.089 31.2078 16.5322C30.6106 15.9753 30.312 15.2896 30.312 14.4751C30.312 13.6605 30.6106 12.9748 31.2078 12.418C31.805 11.8611 32.5251 11.5827 33.3683 11.5827C34.2289 11.5827 34.9535 11.8611 35.5419 12.418C36.1304 12.9748 36.4246 13.6605 36.4246 14.4751C36.4246 15.2896 36.1304 15.9753 35.5419 16.5322Z" fill="white"/>
<path fill-rule="evenodd" clip-rule="evenodd" d="M7.42778 40.5706V37.5622H36.7722V40.5706C36.7722 40.9078 36.8866 41.1944 37.1153 41.4304C37.344 41.6665 37.6291 41.7845 37.9706 41.7845C38.3121 41.7845 38.6024 41.6665 38.8414 41.4304C39.0805 41.1944 39.2 40.9078 39.2 40.5706V28.1678C38.3907 28.3789 37.6782 28.546 37.0625 28.6692C36.4468 28.7923 35.6991 28.8539 34.8194 28.8539H33.9486C33.6495 28.8539 33.3593 28.8363 33.0778 28.8011C33.4179 28.8979 33.6965 29.0826 33.9134 29.3553C34.1304 29.628 34.2389 29.9359 34.2389 30.2789C34.2389 30.9005 34.0102 31.443 33.5528 31.9062C33.0954 32.3695 32.5541 32.6011 31.9291 32.6011C31.304 32.6011 30.7587 32.3695 30.293 31.9062C29.8273 31.443 29.5944 30.9005 29.5944 30.2789C29.5944 29.7632 29.7616 29.3089 30.0958 28.9158C30.4301 28.5227 30.8083 28.3085 31.2306 28.2734C29.5417 27.8511 28.0639 27.209 26.7972 26.347C25.5306 25.4849 24.3343 24.403 23.2083 23.1011H7.85L10.7203 15.1317C10.8611 14.7798 11.0722 14.5071 11.3537 14.3136C11.6351 14.1201 11.9694 14.0234 12.3564 14.0234H20.1472C20.112 13.6715 20.1032 13.3335 20.1208 13.0094C20.1384 12.6853 20.1824 12.3547 20.2528 12.0178H12.8111C11.868 12.0178 11.0155 12.2924 10.2538 12.8417C9.492 13.391 8.95464 14.1191 8.64167 15.0261L5.25154 24.3555C5.15422 24.6022 5.08796 24.85 5.05278 25.0989C5.01759 25.3478 5 25.5967 5 25.8456V40.5706C5 40.9078 5.11435 41.1944 5.34306 41.4304C5.57176 41.6665 5.85686 41.7845 6.19837 41.7845C6.53988 41.7845 6.83016 41.6665 7.06921 41.4304C7.30825 41.1944 7.42778 40.9078 7.42778 40.5706ZM13.9194 31.9026C13.462 32.3683 12.9208 32.6011 12.2957 32.6011C11.6707 32.6011 11.1253 32.3724 10.6596 31.915C10.1939 31.4576 9.96111 30.9164 9.96111 30.2913C9.96111 29.6663 10.1898 29.1209 10.6472 28.6552C11.1046 28.1895 11.6459 27.9567 12.2709 27.9567C12.896 27.9567 13.4413 28.1854 13.907 28.6428C14.3727 29.1002 14.6056 29.6414 14.6056 30.2665C14.6056 30.8915 14.3769 31.4369 13.9194 31.9026Z" fill="white"/>
</svg>
