<svg width="48" height="48" viewBox="0 0 48 48" fill="none" xmlns="http://www.w3.org/2000/svg">
<path d="M30.1357 39.6098C28.6287 39.6098 27.3396 39.0741 26.2681 38.0027C25.197 36.9316 24.6615 35.6426 24.6615 34.1357C24.6615 32.6287 25.197 31.3397 26.2681 30.2686C27.3396 29.1972 28.6287 28.6615 30.1357 28.6615C30.7551 28.6615 31.3663 28.7755 31.9691 29.0036C32.5715 29.2317 33.0856 29.5434 33.5114 29.9388V13.7899H43V18.4886H35.6098V34.1357C35.6098 35.6426 35.0743 36.9316 34.0032 38.0027C32.9317 39.0741 31.6426 39.6098 30.1357 39.6098ZM5 33.0408C5.15206 29.7563 5.86675 26.6847 7.14406 23.8259C8.42137 20.9672 10.1397 18.4582 12.2989 16.2989C14.4582 14.1397 16.9716 12.4138 19.8392 11.1212C22.707 9.82873 25.7742 9.12165 29.0408 9V11.0984C26.099 11.2201 23.323 11.8847 20.7127 13.0924C18.1025 14.2998 15.814 15.8888 13.8472 17.8595C11.8804 19.8299 10.3021 22.1204 9.11203 24.731C7.9217 27.3416 7.2505 30.1115 7.09844 33.0408H5ZM14.3061 33.0408C14.4582 31.064 14.9294 29.2174 15.7198 27.5009C16.5105 25.7845 17.5698 24.263 18.8976 22.9364C20.2254 21.6098 21.7618 20.5369 23.5069 19.7176C25.2522 18.8982 27.0969 18.4278 29.0408 18.3061V20.4502C25.6803 20.7239 22.8177 22.048 20.4532 24.4226C18.0886 26.7975 16.7695 29.6702 16.4958 33.0408H14.3061Z" fill="#71CCF0"/>
</svg>
