<svg width="48" height="48" viewBox="0 0 48 48" fill="none" xmlns="http://www.w3.org/2000/svg">
<path d="M24.3147 40.7521V27.5324L14.5204 37.2197C14.2349 37.5052 13.9138 37.6657 13.557 37.7014C13.2002 37.7371 12.8434 37.5765 12.4866 37.2197C12.1654 36.8986 12.0049 36.5596 12.0049 36.2028C12.0049 35.846 12.1654 35.507 12.4866 35.1859L23.6725 24L12.4866 12.8141C12.2011 12.5286 12.0405 12.2075 12.0049 11.8507C11.9692 11.4939 12.1297 11.1371 12.4866 10.7803C12.8077 10.4592 13.1466 10.2986 13.5035 10.2986C13.8603 10.2986 14.1992 10.4592 14.5204 10.7803L24.3147 20.4676V7.24789C24.3147 6.53427 24.5645 5.98122 25.064 5.58873C25.5636 5.19624 26.0809 5 26.6161 5C26.8659 5 27.1335 5.0446 27.419 5.1338C27.7044 5.223 27.972 5.39249 28.2218 5.64225L35.5542 12.9746C35.8039 13.2244 35.9823 13.4742 36.0894 13.7239C36.1964 13.9737 36.2499 14.2592 36.2499 14.5803C36.2499 14.9014 36.1964 15.1869 36.0894 15.4366C35.9823 15.6864 35.8039 15.9362 35.5542 16.1859L27.7401 24L35.5542 31.8141C35.8039 32.0639 35.9823 32.3136 36.0894 32.5634C36.1964 32.8131 36.2499 33.0986 36.2499 33.4197C36.2499 33.7408 36.1964 34.0263 36.0894 34.2761C35.9823 34.5258 35.8039 34.7756 35.5542 35.0254L28.2218 42.3577C27.972 42.6075 27.7044 42.777 27.419 42.8662C27.1335 42.9554 26.8659 43 26.6161 43C26.0809 43 25.5636 42.8038 25.064 42.4113C24.5645 42.0188 24.3147 41.4657 24.3147 40.7521ZM27.2049 20.4676L33.0922 14.5803L27.2049 8.8V20.4676ZM27.2049 39.2L33.0922 33.4197L27.2049 27.5324V39.2Z" fill="white"/>
</svg>
