<svg width="48" height="48" viewBox="0 0 48 48" fill="none" xmlns="http://www.w3.org/2000/svg">
<path d="M23.767 26.6119C22.4696 26.6119 21.377 26.168 20.4893 25.2803C19.6016 24.3926 19.1578 23.3001 19.1578 22.0027V9.60916C19.1578 8.31177 19.6016 7.21923 20.4893 6.33154C21.377 5.44385 22.4696 5 23.767 5C25.0644 5 26.1569 5.44385 27.0446 6.33154C27.9323 7.21923 28.3761 8.31177 28.3761 9.60916V22.0027C28.3761 23.3001 27.9323 24.3926 27.0446 25.2803C26.1569 26.168 25.0644 26.6119 23.767 26.6119ZM22.333 41.6172V35.6765C19.0554 35.4376 16.2643 34.1658 13.9597 31.8612C11.6551 29.5566 10.3492 26.7484 10.0419 23.4367C9.93948 23.0952 10.0248 22.7709 10.298 22.4636C10.5711 22.1563 10.9125 22.0027 11.3222 22.0027C11.6978 22.0027 12.0392 22.1478 12.3465 22.438C12.6538 22.7282 12.8415 23.0611 12.9098 23.4367C13.2512 26.2022 14.4547 28.4811 16.5203 30.2736C18.5859 32.066 21.0015 32.9623 23.767 32.9623C26.5325 32.9623 28.948 32.066 31.0136 30.2736C33.0792 28.4811 34.2827 26.2022 34.6241 23.4367C34.7265 23.0611 34.9229 22.7282 35.2131 22.438C35.5033 22.1478 35.8362 22.0027 36.2117 22.0027C36.6214 22.0027 36.9628 22.1478 37.236 22.438C37.5091 22.7282 37.5945 23.0611 37.492 23.4367C37.1848 26.7143 35.8703 29.5054 33.5486 31.81C31.227 34.1146 28.4103 35.4034 25.0985 35.6765V41.6172C25.0985 41.9928 24.9619 42.3172 24.6888 42.5903C24.4157 42.8634 24.0913 43 23.7158 43C23.3402 43 23.0158 42.8634 22.7427 42.5903C22.4696 42.3172 22.333 41.9928 22.333 41.6172Z" fill="white"/>
</svg>
