<svg width="48" height="48" viewBox="0 0 48 48" fill="none" xmlns="http://www.w3.org/2000/svg">
<path d="M24 40.7198L22.4341 39.206C18.7802 35.8306 15.8049 33.0119 13.5082 30.75C11.2115 28.4881 9.43681 26.5568 8.18407 24.956C6.93132 23.3553 6.08745 21.9199 5.65247 20.6497C5.21749 19.3796 5 18.0833 5 16.761C5 14.0815 5.96566 11.7848 7.89698 9.87088C9.8283 7.95696 12.1511 7 14.8654 7C16.4661 7 18.0669 7.43498 19.6676 8.30495C21.2683 9.17491 22.7125 10.4451 24 12.1154C25.2875 10.4451 26.7317 9.17491 28.3324 8.30495C29.9332 7.43498 31.5339 7 33.1346 7C35.8489 7 38.1717 7.95696 40.103 9.87088C42.0343 11.7848 43 14.0815 43 16.761C43 18.0833 42.7912 19.3622 42.3736 20.5975C41.956 21.8329 41.1209 23.2422 39.8681 24.8255C38.6154 26.4089 36.8407 28.3489 34.544 30.6456C32.2473 32.9423 29.2198 35.8306 25.4615 39.3104L24 40.7198ZM24 37.4313C27.3059 34.4038 30.0201 31.8462 32.1429 29.7582C34.2656 27.6703 35.962 25.8521 37.2321 24.3036C38.5023 22.755 39.381 21.3979 39.8681 20.2321C40.3553 19.0664 40.5989 17.9093 40.5989 16.761C40.5989 14.6731 39.8942 12.9245 38.4849 11.5151C37.0755 10.1058 35.2921 9.4011 33.1346 9.4011C31.9515 9.4011 30.8031 9.67949 29.6896 10.2363C28.576 10.793 27.4277 11.6804 26.2445 12.8984L24.4176 15.0385H23.5824L21.7555 12.8984C20.5375 11.6456 19.3631 10.7495 18.2321 10.2102C17.1012 9.67079 15.9789 9.4011 14.8654 9.4011C12.7427 9.4011 10.9679 10.1058 9.54121 11.5151C8.11447 12.9245 7.4011 14.6731 7.4011 16.761C7.4011 17.9093 7.62729 19.0403 8.07967 20.1538C8.53205 21.2674 9.37592 22.5897 10.6113 24.1209C11.8466 25.652 13.5343 27.4615 15.6745 29.5495C17.8146 31.6374 20.5897 34.2647 24 37.4313Z" fill="white"/>
</svg>
