<svg width="48" height="48" viewBox="0 0 48 48" fill="none" xmlns="http://www.w3.org/2000/svg">
<path d="M14 5C9.02944 5 5 9.02944 5 14C5 18.9706 9.02944 23 14 23C18.9706 23 23 18.9706 23 14C23 9.02944 18.9706 5 14 5Z" fill="white"/>
<path d="M34 5C29.0294 5 25 9.02944 25 14C25 18.9706 29.0294 23 34 23C38.9706 23 43 18.9706 43 14C43 9.02944 38.9706 5 34 5Z" fill="white"/>
<path d="M25 34C25 29.0294 29.0294 25 34 25C38.9706 25 43 29.0294 43 34C43 38.9706 38.9706 43 34 43C29.0294 43 25 38.9706 25 34Z" fill="white"/>
<path d="M14 25C9.02944 25 5 29.0294 5 34C5 38.9706 9.02944 43 14 43C18.9706 43 23 38.9706 23 34C23 29.0294 18.9706 25 14 25Z" fill="white"/>
</svg>
