<svg width="64" height="64" viewBox="0 0 64 64" fill="none" xmlns="http://www.w3.org/2000/svg">
<path d="M46.2105 54.4737C44.2211 54.4737 42.5395 53.7868 41.1658 52.4132C39.7921 51.0395 39.1053 49.3579 39.1053 47.3684C39.1053 45.3789 39.7921 43.6974 41.1658 42.3237C42.5395 40.95 44.2211 40.2632 46.2105 40.2632C46.5895 40.2632 47.0158 40.2987 47.4895 40.3697C47.9632 40.4408 48.4842 40.5947 49.0526 40.8316V26.0526H59V31.7368H53.3158V47.3684C53.3158 49.3579 52.6289 51.0395 51.2553 52.4132C49.8816 53.7868 48.2 54.4737 46.2105 54.4737ZM27.7368 31.7368C24.6105 31.7368 21.9342 30.6237 19.7079 28.3974C17.4816 26.1711 16.3684 23.4947 16.3684 20.3684C16.3684 17.2421 17.4816 14.5658 19.7079 12.3395C21.9342 10.1132 24.6105 9 27.7368 9C30.8632 9 33.5395 10.1132 35.7658 12.3395C37.9921 14.5658 39.1053 17.2421 39.1053 20.3684C39.1053 23.4947 37.9921 26.1711 35.7658 28.3974C33.5395 30.6237 30.8632 31.7368 27.7368 31.7368ZM5 54.4737V46.5158C5 44.8579 5.41447 43.3658 6.24342 42.0395C7.07237 40.7132 8.17368 39.6947 9.54737 38.9842C12.4842 37.5158 15.4684 36.4145 18.5 35.6803C21.5316 34.9461 24.6105 34.5789 27.7368 34.5789C29.7263 34.5789 31.7039 34.7329 33.6697 35.0408C35.6355 35.3487 37.6132 35.8105 39.6026 36.4263C36.4763 38.3211 34.5342 41.0329 33.7763 44.5618C33.0184 48.0908 33.6342 51.3947 35.6237 54.4737H5Z" fill="white"/>
</svg>
