<svg width="64" height="64" viewBox="0 0 64 64" fill="none" xmlns="http://www.w3.org/2000/svg">
<path d="M32 44.15C35.375 44.15 38.2438 42.9688 40.6063 40.6063C42.9688 38.2438 44.15 35.375 44.15 32C44.15 28.625 42.9688 25.7563 40.6063 23.3938C38.2438 21.0312 35.375 19.85 32 19.85C28.625 19.85 25.7563 21.0312 23.3938 23.3938C21.0312 25.7563 19.85 28.625 19.85 32C19.85 35.375 21.0312 38.2438 23.3938 40.6063C25.7563 42.9688 28.625 44.15 32 44.15ZM32 34.7C31.235 34.7 30.5938 34.4413 30.0763 33.9238C29.5588 33.4063 29.3 32.765 29.3 32C29.3 31.235 29.5588 30.5938 30.0763 30.0763C30.5938 29.5588 31.235 29.3 32 29.3C32.765 29.3 33.4063 29.5588 33.9238 30.0763C34.4413 30.5938 34.7 31.235 34.7 32C34.7 32.765 34.4413 33.4063 33.9238 33.9238C33.4063 34.4413 32.765 34.7 32 34.7ZM32 59C28.265 59 24.755 58.2913 21.47 56.8738C18.185 55.4563 15.3275 53.5325 12.8975 51.1025C10.4675 48.6725 8.54375 45.815 7.12625 42.53C5.70875 39.245 5 35.735 5 32C5 28.265 5.70875 24.755 7.12625 21.47C8.54375 18.185 10.4675 15.3275 12.8975 12.8975C15.3275 10.4675 18.185 8.54375 21.47 7.12625C24.755 5.70875 28.265 5 32 5C35.735 5 39.245 5.70875 42.53 7.12625C45.815 8.54375 48.6725 10.4675 51.1025 12.8975C53.5325 15.3275 55.4563 18.185 56.8738 21.47C58.2913 24.755 59 28.265 59 32C59 35.735 58.2913 39.245 56.8738 42.53C55.4563 45.815 53.5325 48.6725 51.1025 51.1025C48.6725 53.5325 45.815 55.4563 42.53 56.8738C39.245 58.2913 35.735 59 32 59Z" fill="white"/>
</svg>
