<svg width="64" height="64" viewBox="0 0 64 64" fill="none" xmlns="http://www.w3.org/2000/svg">
<path d="M32 54.04L28.52 50.92C24.48 47.28 21.14 44.14 18.5 41.5C15.86 38.86 13.76 36.49 12.2 34.39C10.64 32.29 9.55 30.36 8.93 28.6C8.31 26.84 8 25.04 8 23.2C8 19.44 9.26 16.3 11.78 13.78C14.3 11.26 17.44 10 21.2 10C23.28 10 25.26 10.44 27.14 11.32C29.02 12.2 30.64 13.44 32 15.04C33.36 13.44 34.98 12.2 36.86 11.32C38.74 10.44 40.72 10 42.8 10C46.56 10 49.7 11.26 52.22 13.78C54.74 16.3 56 19.44 56 23.2C56 25.04 55.69 26.84 55.07 28.6C54.45 30.36 53.36 32.29 51.8 34.39C50.24 36.49 48.14 38.86 45.5 41.5C42.86 44.14 39.52 47.28 35.48 50.92L32 54.04Z" fill="#71CCF0"/>
</svg>
