<svg width="64" height="64" viewBox="0 0 64 64" fill="none" xmlns="http://www.w3.org/2000/svg">
<path d="M12.4651 49.7209C11.2372 49.7209 10.186 49.2837 9.31163 48.4093C8.43721 47.5349 8 46.4837 8 45.2558V18.4651C8 17.2372 8.43721 16.186 9.31163 15.3116C10.186 14.4372 11.2372 14 12.4651 14H25.8605L30.3256 18.4651H48.186C49.414 18.4651 50.4651 18.9023 51.3395 19.7767C52.214 20.6512 52.6512 21.7023 52.6512 22.9302H12.4651V45.2558L17.8233 27.3953H56L50.2512 46.5395C49.9535 47.507 49.4047 48.2791 48.6047 48.8558C47.8046 49.4326 46.9209 49.7209 45.9535 49.7209H12.4651Z" fill="white"/>
</svg>
