<svg width="100" height="100" viewBox="0 0 100 100" fill="none" xmlns="http://www.w3.org/2000/svg">
<path d="M2.38419e-06 50C2.38419e-06 77.6142 22.3858 100 50 100C77.6142 100 100 77.6142 100 50C100 22.3858 77.6142 0 50 0C22.3858 0 2.38419e-06 22.3858 2.38419e-06 50Z" fill="#242424"/>
<path d="M47.75 72.5V63.1625L40.4375 70.3625L37.2875 67.2125L47.75 56.75V52.25H43.25L32.7875 62.7125L29.6375 59.5625L36.8375 52.25H27.5V47.75H36.8375L29.6375 40.4375L32.7875 37.2875L43.25 47.75H47.75V43.25L37.2875 32.7875L40.4375 29.6375L47.75 36.8375V27.5H52.25V36.8375L59.5625 29.6375L62.7125 32.7875L52.25 43.25V47.75H56.75L67.2125 37.2875L70.3625 40.4375L63.1625 47.75H72.5V52.25H63.1625L70.3625 59.5625L67.2125 62.7125L56.75 52.25H52.25V56.75L62.7125 67.2125L59.5625 70.3625L52.25 63.1625V72.5H47.75Z" fill="white" fill-opacity="0.3"/>
</svg>
