<svg width="54" height="55" viewBox="0 0 54 55" fill="none" xmlns="http://www.w3.org/2000/svg">
<path d="M23.22 54.3335C20.925 54.3335 19.1813 53.6472 17.9888 52.2747C16.7963 50.9022 16.2 49.3385 16.2 47.5835C16.2 46.4135 16.4587 45.2772 16.9763 44.1747C17.4938 43.0722 18.2925 42.161 19.3725 41.441C20.3625 40.811 21.1613 40.001 21.7688 39.011C22.3763 38.021 22.7925 36.9635 23.0175 35.8385L22.2075 35.4335C21.9375 35.2985 21.69 35.141 21.465 34.961L15.255 37.1885C14.49 37.4585 13.7475 37.6835 13.0275 37.8635C12.3075 38.0435 11.565 38.1335 10.8 38.1335C7.965 38.1335 5.45625 36.896 3.27375 34.421C1.09125 31.946 0 28.3235 0 23.5535C0 21.2585 0.68625 19.5147 2.05875 18.3222C3.43125 17.1297 4.9725 16.5335 6.6825 16.5335C7.8525 16.5335 9 16.7922 10.125 17.3097C11.25 17.8272 12.1725 18.626 12.8925 19.706C13.5225 20.696 14.3325 21.4947 15.3225 22.1022C16.3125 22.7097 17.37 23.126 18.495 23.351L18.9 22.541C19.035 22.271 19.1925 22.0235 19.3725 21.7985L17.145 15.5885C16.875 14.8235 16.65 14.081 16.47 13.361C16.29 12.641 16.2 11.921 16.2 11.201C16.2 8.321 17.4375 5.78975 19.9125 3.60725C22.3875 1.42475 26.01 0.333496 30.78 0.333496C33.075 0.333496 34.8188 1.01975 36.0112 2.39225C37.2038 3.76475 37.8 5.306 37.8 7.016C37.8 8.186 37.5413 9.3335 37.0238 10.4585C36.5063 11.5835 35.7075 12.506 34.6275 13.226C33.6375 13.856 32.8388 14.666 32.2313 15.656C31.6238 16.646 31.2075 17.7035 30.9825 18.8285L31.7925 19.2335C32.0625 19.3685 32.31 19.526 32.535 19.706L38.745 17.411C39.51 17.141 40.2413 16.9272 40.9388 16.7697C41.6363 16.6122 42.3675 16.5335 43.1325 16.5335C46.7775 16.5335 49.5 18.041 51.3 21.056C53.1 24.071 54 27.4235 54 31.1135C54 33.4085 53.28 35.1522 51.84 36.3447C50.4 37.5372 48.8025 38.1335 47.0475 38.1335C45.9225 38.1335 44.8313 37.8747 43.7738 37.3572C42.7163 36.8397 41.8275 36.041 41.1075 34.961C40.4775 33.971 39.6675 33.1722 38.6775 32.5647C37.6875 31.9572 36.63 31.541 35.505 31.316L35.1 32.126C34.965 32.396 34.8075 32.6435 34.6275 32.8685L36.855 39.0785C37.125 39.7985 37.35 40.4847 37.53 41.1372C37.71 41.7897 37.8 42.476 37.8 43.196C37.845 46.121 36.63 48.7085 34.155 50.9585C31.68 53.2085 28.035 54.3335 23.22 54.3335ZM27 31.3835C28.125 31.3835 29.0813 30.9897 29.8688 30.2022C30.6563 29.4147 31.05 28.4585 31.05 27.3335C31.05 26.2085 30.6563 25.2522 29.8688 24.4647C29.0813 23.6772 28.125 23.2835 27 23.2835C25.875 23.2835 24.9188 23.6772 24.1313 24.4647C23.3438 25.2522 22.95 26.2085 22.95 27.3335C22.95 28.4585 23.3438 29.4147 24.1313 30.2022C24.9188 30.9897 25.875 31.3835 27 31.3835Z" fill="white"/>
</svg>
