<svg width="54" height="55" viewBox="0 0 54 55" fill="none" xmlns="http://www.w3.org/2000/svg">
<path d="M54 29.201C54 31.3534 53.3247 32.9888 51.9742 34.1072C50.6237 35.2256 49.1254 35.7848 47.4795 35.7848C47.2263 35.7848 46.973 35.7743 46.7198 35.7532C46.4666 35.7321 46.2134 35.6793 45.9601 35.5949L18.8019 8.43666C19.3505 6.15765 20.7538 4.23737 23.0117 2.67582C25.2696 1.11427 28.34 0.333496 32.2227 0.333496C34.3751 0.333496 36.0106 0.977107 37.129 2.26433C38.2474 3.55155 38.8066 4.99704 38.8066 6.60079C38.8066 7.69809 38.5639 8.77429 38.0785 9.82939C37.5932 10.8845 36.8441 11.7497 35.8312 12.4249C34.9027 13.0158 34.1536 13.7755 33.5838 14.704C33.0141 15.6324 32.6237 16.6242 32.4127 17.6793L33.1723 18.0592C33.4256 18.1858 33.6577 18.3335 33.8687 18.5023L39.6929 16.3499C40.4103 16.0967 41.0961 15.8962 41.7503 15.7485C42.4045 15.6008 43.0903 15.5269 43.8077 15.5269C47.2263 15.5269 49.7796 16.9408 51.4678 19.7684C53.1559 22.5961 54 25.7403 54 29.201ZM50.1383 54.2702L38.6166 42.6852C38.068 44.9642 36.6647 46.9161 34.4068 48.541C32.1489 50.1659 29.0574 50.9783 25.1325 50.9783C22.9801 50.9783 21.3447 50.3347 20.2263 49.0474C19.1079 47.7602 18.5487 46.2936 18.5487 44.6477C18.5487 43.5504 18.7913 42.4847 19.2767 41.4507C19.762 40.4167 20.5111 39.5621 21.524 38.8868C22.4525 38.296 23.2016 37.5363 23.7714 36.6078C24.3412 35.6793 24.7315 34.6875 24.9426 33.6324L24.1829 33.2526C23.9297 33.126 23.6975 32.9783 23.4865 32.8095L17.6624 34.8986C16.9449 35.1518 16.2485 35.3628 15.5733 35.5316C14.898 35.7004 14.2016 35.7848 13.4842 35.7848C10.8253 35.7848 8.47245 34.6242 6.42556 32.303C4.37866 29.9818 3.35522 26.5844 3.35522 22.1108C3.35522 19.9584 3.99883 18.3229 5.28605 17.2045C6.57327 16.0861 8.01876 15.5269 9.62251 15.5269C9.96014 15.5269 10.3083 15.548 10.6671 15.5902C11.0258 15.6324 11.374 15.6957 11.7116 15.7802L0 4.13186L3.60844 0.523414L53.7468 50.6618L50.1383 54.2702Z" fill="white"/>
</svg>
