<svg width="80" height="25" viewBox="0 0 80 25" fill="none" xmlns="http://www.w3.org/2000/svg">
<mask id="mask0_1663_59007" style="mask-type:alpha" maskUnits="userSpaceOnUse" x="0" y="0" width="80" height="25">
<rect width="80" height="25" fill="#D9D9D9"/>
</mask>
<g mask="url(#mask0_1663_59007)">
<mask id="mask1_1663_59007" style="mask-type:alpha" maskUnits="userSpaceOnUse" x="0" y="-210" width="80" height="295">
<path d="M80 -210H0V-185H80V-210Z" fill="white"/>
<path d="M80 -180H0V-155H80V-180Z" fill="white"/>
<path d="M0 -150H80V-125H0V-150Z" fill="white"/>
<path d="M80 -120H0V-95H80V-120Z" fill="white"/>
<path d="M0 -90H80V-65H0V-90Z" fill="white"/>
<path d="M80 -60H0V-35H80V-60Z" fill="white"/>
<path d="M0 -30H80V-5H0V-30Z" fill="white"/>
<path d="M80 0H0V25H80V0Z" fill="white"/>
<path d="M0 30H80V55H0V30Z" fill="white"/>
<path d="M80 60H0V85H80V60Z" fill="white"/>
</mask>
<g mask="url(#mask1_1663_59007)">
<rect y="-234" width="80" height="344" rx="40" fill="url(#paint0_linear_1663_59007)"/>
</g>
</g>
<defs>
<linearGradient id="paint0_linear_1663_59007" x1="40" y1="-234" x2="40" y2="110" gradientUnits="userSpaceOnUse">
<stop stop-color="#FF0000"/>
<stop offset="0.505208" stop-color="#6100FF"/>
<stop offset="1" stop-color="#0047FF"/>
</linearGradient>
</defs>
</svg>
