<svg width="10" height="176" viewBox="0 0 10 176" fill="none" xmlns="http://www.w3.org/2000/svg">
<path d="M0 5C0 2.23858 2.23858 0 5 0C7.76142 0 10 2.23858 10 5V13C10 15.7614 7.76142 18 5 18C2.23858 18 0 15.7614 0 13V5Z" fill="#71CCF0"/>
<path d="M0 33C0 30.2386 2.23858 28 5 28C7.76142 28 10 30.2386 10 33V143C10 145.761 7.76142 148 5 148C2.23858 148 0 145.761 0 143V33Z" fill="#555555"/>
<path d="M0 163C0 160.239 2.23858 158 5 158C7.76142 158 10 160.239 10 163V171C10 173.761 7.76142 176 5 176C2.23858 176 0 173.761 0 171V163Z" fill="#71CCF0"/>
</svg>
