<svg width="100" height="100" viewBox="0 0 100 100" fill="none" xmlns="http://www.w3.org/2000/svg">
<path d="M2.38419e-06 50C2.38419e-06 77.6142 22.3858 100 50 100C77.6142 100 100 77.6142 100 50C100 22.3858 77.6142 0 50 0C22.3858 0 2.38419e-06 22.3858 2.38419e-06 50Z" fill="#2272A7"/>
<path fill-rule="evenodd" clip-rule="evenodd" d="M34.0167 41.7601H50.033L60.4855 52.2126C60.8849 52.6121 61.4267 52.8365 61.9916 52.8365H68.2399V57.3807H50.9153V61.6408H70.3699C71.5463 61.6408 72.5 60.6872 72.5 59.5107V50.7064C72.5 49.53 71.5463 48.5764 70.3699 48.5764H62.8739L52.4215 38.1239C52.022 37.7244 51.4802 37.5 50.9153 37.5H34.0167V41.7601ZM50.717 48.6322L45.0368 42.952L42.0244 45.9644L44.0684 48.0084H35.8573C33.8408 48.0084 31.9069 48.8094 30.481 50.2353L29.4844 51.232C25.8625 54.8538 27.4251 61.0308 32.3336 62.4948C32.9608 62.6818 33.6119 62.7769 34.2664 62.7769H39.8385V58.5167H34.2664C34.0242 58.5167 33.7832 58.4815 33.5511 58.4123C31.7347 57.8706 31.1564 55.5847 32.4967 54.2443L33.4934 53.2477C34.1204 52.6207 34.9707 52.2685 35.8573 52.2685H44.0684L42.0244 54.3124L45.0368 57.3248L50.717 51.6446C51.5488 50.8128 51.5488 49.4641 50.717 48.6322Z" fill="white"/>
</svg>
