<svg width="64" height="64" viewBox="0 0 64 64" fill="none" xmlns="http://www.w3.org/2000/svg">
<path fill-rule="evenodd" clip-rule="evenodd" d="M10.9735 11.9867H53.0265C54.6761 11.9867 56.0133 13.3239 56.0133 14.9735V38.2699C56.0133 39.9194 54.6761 41.2566 53.0265 41.2566H46.8543L46.5012 40.5243L46.4976 40.5183C45.046 38.0119 44.4965 35.3131 44.8752 32.4183C44.9194 32.0766 45.0687 31.9942 45.3793 31.999C45.9682 32.0091 46.5571 32.0073 47.1787 32.0054C47.4348 32.0046 47.6964 32.0038 47.9658 32.0038C46.4665 28.2524 44.9946 24.5692 43.4523 20.708C42.8002 22.3369 42.1587 23.939 41.5206 25.5324L41.5117 25.5546L41.5033 25.5755C40.645 27.7189 39.7928 29.8471 38.9292 32.005H42.1119C41.8359 34.5819 42.0366 37.0406 42.9195 39.4813V39.4849C42.92 39.4859 42.9207 39.4869 42.9215 39.488C42.9226 39.4897 42.924 39.4917 42.9254 39.4945C42.9825 39.5994 43.3788 40.3322 43.8564 41.2566H33.9516L33.5985 40.5243L33.5949 40.5183C32.1434 38.0119 31.5938 35.3131 31.9725 32.4183C32.0167 32.0766 32.1661 31.9942 32.4767 31.999C33.0656 32.0091 33.6545 32.0073 34.276 32.0054C34.5321 32.0046 34.7937 32.0038 35.0632 32.0038C33.5638 28.2524 32.092 24.5692 30.5496 20.708C29.912 22.3009 29.2844 23.868 28.6603 25.4267L28.6289 25.5049L28.6215 25.5235C27.7561 27.6844 26.8971 29.8296 26.0265 32.005H29.2092C28.9332 34.5819 29.1339 37.0406 30.0168 39.4813V39.4849C30.0173 39.4859 30.018 39.4869 30.0188 39.488C30.02 39.4897 30.0214 39.4917 30.0228 39.4945C30.0798 39.5994 30.4762 40.3322 30.9538 41.2566H21.049L20.6958 40.5243L20.6923 40.5183C19.2407 38.0119 18.6911 35.3131 19.0699 32.4183C19.1141 32.0766 19.2634 31.9942 19.574 31.999C20.1629 32.0091 20.7518 32.0073 21.3734 32.0054C21.6294 32.0046 21.8911 32.0038 22.1605 32.0038C20.6612 28.2524 19.1893 24.5692 17.647 20.708C16.9956 22.3351 16.3548 23.9353 15.7175 25.5269L15.7134 25.5371C14.8499 27.6935 13.9926 29.8342 13.1239 32.005H16.3065C16.0306 34.5819 16.2313 37.0406 17.1142 39.4813V39.4849C17.1147 39.4859 17.1154 39.4869 17.1162 39.488C17.1173 39.4897 17.1187 39.4917 17.1201 39.4945C17.1771 39.5994 17.5735 40.3322 18.0511 41.2566H10.9735C9.32393 41.2566 7.98673 39.9194 7.98673 38.2699V14.9735C7.98673 13.3239 9.32393 11.9867 10.9735 11.9867ZM19.5013 44.2434H10.9735C7.67441 44.2434 5 41.569 5 38.2699V14.9735C5 11.6744 7.67441 9 10.9735 9H53.0265C56.3256 9 59 11.6744 59 14.9735V38.2699C59 41.569 56.3256 44.2434 53.0265 44.2434H48.2945L48.4437 44.5528C48.4243 44.9064 48.4128 45.2567 48.4014 45.6036V45.6037C48.3737 46.45 48.3466 47.2765 48.206 48.0831C47.7854 50.4976 46.5931 52.5536 44.9182 54.3265C44.3077 54.9729 43.4881 54.9944 42.8992 54.44C42.3305 53.9048 42.3221 53.0697 42.9087 52.4091C44.2396 50.9085 45.2443 49.2408 45.5717 47.2289C45.7031 46.4213 45.6804 45.6256 45.4904 44.8538L45.6912 45.2732C45.6295 45.0278 45.4912 44.6668 45.3066 44.2434H35.3919L35.5411 44.5528C35.5216 44.9064 35.5101 45.2567 35.4988 45.6036C35.471 46.4499 35.444 47.2764 35.3033 48.0831C34.8828 50.4976 33.6905 52.5536 32.0155 54.3265C31.405 54.9729 30.5855 54.9944 29.9965 54.44C29.4278 53.9048 29.4195 53.0697 30.0061 52.4091C31.3369 50.9085 32.3417 49.2408 32.669 47.2289C32.8004 46.4213 32.7777 45.6256 32.5878 44.8538L32.7885 45.2732C32.7269 45.0278 32.5885 44.6668 32.404 44.2434H22.4892L22.6384 44.5528C22.619 44.9064 22.6075 45.2567 22.5961 45.6036C22.5684 46.4499 22.5413 47.2764 22.4007 48.0831C21.9801 50.4976 20.7878 52.5536 19.1129 54.3265C18.5024 54.9729 17.6828 54.9944 17.0938 54.44C16.5252 53.9048 16.5168 53.0697 17.1034 52.4091C18.4343 50.9085 19.439 49.2408 19.7664 47.2289C19.8978 46.4213 19.8751 45.6256 19.6851 44.8538L19.8858 45.2732C19.8242 45.0278 19.6859 44.6668 19.5013 44.2434Z" fill="white"/>
</svg>
