<svg width="100" height="100" viewBox="0 0 100 100" fill="none" xmlns="http://www.w3.org/2000/svg">
<path d="M2.38419e-06 50C2.38419e-06 77.6142 22.3858 100 50 100C77.6142 100 100 77.6142 100 50C100 22.3858 77.6142 0 50 0C22.3858 0 2.38419e-06 22.3858 2.38419e-06 50Z" fill="#555555"/>
<path fill-rule="evenodd" clip-rule="evenodd" d="M27.5 41.0802L39.7984 53.3786C40.1626 53.7427 40.6565 53.9473 41.1715 53.9473H45.0276L43.1643 55.8106L45.9104 58.5568L51.0887 53.3786C51.8471 52.6202 51.8471 51.3907 51.0887 50.6324L45.9104 45.4541L43.1643 48.2003L45.0276 50.0636H41.9758L30.2462 38.334L27.5 41.0802ZM37.4172 42.9435H52.0182L61.5471 52.4724C61.9113 52.8365 62.4052 53.0411 62.9202 53.0411H68.6163V57.1837H52.8226V61.0674H70.5581C71.6306 61.0674 72.5 60.198 72.5 59.1256V51.0993C72.5 50.0268 71.6306 49.1574 70.5581 49.1574H63.7245L54.1957 39.6286C53.8315 39.2644 53.3376 39.0598 52.8226 39.0598H37.4172V42.9435Z" fill="white"/>
</svg>
