<svg width="80" height="25" viewBox="0 0 80 25" fill="none" xmlns="http://www.w3.org/2000/svg">
<mask id="mask0_1663_59027" style="mask-type:alpha" maskUnits="userSpaceOnUse" x="0" y="0" width="80" height="25">
<rect width="80" height="25" fill="#D9D9D9"/>
</mask>
<g mask="url(#mask0_1663_59027)">
<mask id="mask1_1663_59027" style="mask-type:alpha" maskUnits="userSpaceOnUse" x="0" y="-240" width="80" height="295">
<path d="M80 -240H0V-215H80V-240Z" fill="white"/>
<path d="M80 -210H0V-185H80V-210Z" fill="white"/>
<path d="M0 -180H80V-155H0V-180Z" fill="white"/>
<path d="M80 -150H0V-125H80V-150Z" fill="white"/>
<path d="M0 -120H80V-95H0V-120Z" fill="white"/>
<path d="M80 -90H0V-65H80V-90Z" fill="white"/>
<path d="M0 -60H80V-35H0V-60Z" fill="white"/>
<path d="M80 -30H0V-5H80V-30Z" fill="white"/>
<path d="M0 0H80V25H0V0Z" fill="white"/>
<path d="M80 30H0V55H80V30Z" fill="white"/>
</mask>
<g mask="url(#mask1_1663_59027)">
<rect y="-264" width="80" height="344" rx="40" fill="url(#paint0_linear_1663_59027)"/>
</g>
</g>
<defs>
<linearGradient id="paint0_linear_1663_59027" x1="40" y1="-264" x2="40" y2="80" gradientUnits="userSpaceOnUse">
<stop stop-color="#FF0000"/>
<stop offset="0.505208" stop-color="#6100FF"/>
<stop offset="1" stop-color="#0047FF"/>
</linearGradient>
</defs>
</svg>
