<svg width="64" height="64" viewBox="0 0 64 64" fill="none" xmlns="http://www.w3.org/2000/svg">
<path d="M45.0146 42.7508C44.9456 43.8878 44.979 44.9871 44.7936 46.0487C44.4143 48.228 43.3387 50.0828 41.8276 51.6822C41.2769 52.2653 40.5375 52.2847 40.0062 51.7846C39.4932 51.3018 39.4867 50.5495 40.0148 49.9535C41.2155 48.5998 42.1219 47.0953 42.4172 45.2803C42.5885 44.2284 42.4689 43.2024 42.027 42.2291C41.9559 42.0718 41.7824 41.8746 41.6315 41.8519C39.5449 41.5264 37.453 41.2279 35.3632 40.924C35.3481 40.9218 35.3309 40.938 35.3147 40.9455C35.5054 41.6978 35.7501 42.4404 35.8751 43.2034C36.2329 45.373 35.6606 47.3776 34.5904 49.2389C34.1022 50.0882 33.4825 50.8707 32.8541 51.6262C32.3163 52.2718 31.5447 52.3009 31.0025 51.7997C30.468 51.3061 30.469 50.557 31.0241 49.9298C32.1353 48.6742 32.9856 47.2806 33.3488 45.622C33.7228 43.918 33.3079 42.3876 32.3271 40.9865C32.2484 40.8744 32.0663 40.7602 31.9391 40.7666C30.1306 40.8668 28.3232 40.9865 26.5158 41.105C26.4662 41.1083 26.4199 41.146 26.4113 41.1503C26.5859 42.0373 26.8564 42.9006 26.9103 43.7779C27.1021 46.8926 25.8368 49.4663 23.7772 51.7016C23.2534 52.2707 22.5291 52.2815 21.9978 51.8008C21.4525 51.3072 21.4266 50.5894 21.9666 49.9794C23.0659 48.7378 23.913 47.3647 24.301 45.733C24.6082 44.4429 24.4594 43.2067 23.9076 42.0071C23.7632 41.6935 23.6145 41.5394 23.2168 41.6547C21.0839 42.2733 18.937 42.8435 16.8051 43.4653C15.7306 43.779 15.2273 43.5871 14.7994 42.5665C11.606 34.9434 8.41257 27.3193 5.22022 19.6963C4.78804 18.6627 4.9691 18.1756 5.96712 17.6313C11.4486 14.6405 17.2815 12.6617 23.4409 11.6777C27.7455 10.9912 32.076 10.8241 36.4302 11.1862C44.0812 11.8232 51.2732 13.9723 58.0254 17.6162C59.032 18.1594 59.2163 18.6703 58.7733 19.7297C55.5929 27.3193 52.4134 34.909 49.2319 42.4975C48.7663 43.6065 48.305 43.8135 47.1712 43.4438C46.4286 43.2013 45.6849 42.9663 45.0146 42.7519V42.7508ZM18.3948 31.5593C19.7614 28.1438 21.0968 24.8049 22.4785 21.3507C23.8613 24.8157 25.1934 28.1503 26.56 31.5743H23.8419C23.4334 33.8021 23.8095 36.4211 24.7881 38.3977C24.9261 38.6779 25.0641 38.7846 25.4057 38.7307C26.1838 38.6068 26.9717 38.5346 27.7585 38.4699C28.8104 38.3837 29.8633 38.3233 30.9853 38.2479C30.2007 36.0579 30.0315 33.8452 30.2783 31.5474H27.4114C28.7737 28.1417 30.108 24.8081 31.4918 21.3517C32.8768 24.8189 34.21 28.1546 35.5636 31.5431C34.7672 31.5431 34.0494 31.5679 33.3348 31.5334C32.9425 31.5151 32.7927 31.653 32.7507 32.027C32.5254 34.0284 32.7755 35.9609 33.5202 37.8351C33.6668 38.2037 33.8813 38.3373 34.2768 38.3632C35.583 38.4462 36.8871 38.5626 38.1902 38.6887C38.8573 38.7533 39.519 38.8665 40.2897 38.9721C39.2701 36.545 39.0211 34.1093 39.296 31.5442H36.4237C37.7882 28.1374 39.1192 24.8124 40.5041 21.3528C41.8955 24.8362 43.2233 28.1578 44.5759 31.5431C43.7428 31.5431 42.9927 31.5517 42.2415 31.5388C41.9613 31.5345 41.8276 31.6088 41.7867 31.9171C41.4364 34.5975 41.9677 37.0925 43.3559 39.4032C43.4604 39.5778 43.6814 39.7287 43.8808 39.7934C44.8012 40.0898 45.7421 40.328 46.6571 40.6384C47.0893 40.7849 47.2671 40.7127 47.4493 40.2752C50.204 33.6544 52.9803 27.0413 55.7513 20.427C55.8806 20.1177 56.0002 19.8051 56.1425 19.4506C46.5622 14.5209 36.469 12.6477 25.8196 13.8871C19.4974 14.6232 13.5136 16.4932 7.85752 19.4775C8.91912 22.0156 9.94946 24.4783 10.9809 26.941C12.8443 31.389 14.71 35.8358 16.5669 40.287C16.7071 40.6233 16.8105 40.8356 17.2578 40.6685C17.9443 40.412 18.6578 40.2245 19.367 40.0337C20.3467 39.7708 21.3328 39.5337 22.3772 39.2707C21.3037 36.7853 20.9265 34.2461 21.2757 31.5593H18.3948Z" fill="white"/>
</svg>
