<svg width="80" height="344" viewBox="0 0 80 344" fill="none" xmlns="http://www.w3.org/2000/svg">
<rect width="80" height="344" rx="40" fill="url(#paint0_linear_1876_52878)" fill-opacity="0.1"/>
<g opacity="0.3">
<mask id="mask0_1876_52878" style="mask-type:alpha" maskUnits="userSpaceOnUse" x="0" y="25" width="80" height="295">
<path d="M80 25H0V50H80V25Z" fill="white"/>
<path d="M80 55H0V80H80V55Z" fill="white"/>
<path d="M0 85H80V110H0V85Z" fill="white"/>
<path d="M80 115H0V140H80V115Z" fill="white"/>
<path d="M0 145H80V170H0V145Z" fill="white"/>
<path d="M80 175H0V200H80V175Z" fill="white"/>
<path d="M0 205H80V230H0V205Z" fill="white"/>
<path d="M80 235H0V260H80V235Z" fill="white"/>
<path d="M0 265H80V290H0V265Z" fill="white"/>
<path d="M80 295H0V320H80V295Z" fill="white"/>
</mask>
<g mask="url(#mask0_1876_52878)">
<rect y="1" width="80" height="344" rx="40" fill="url(#paint1_linear_1876_52878)" fill-opacity="0.1"/>
</g>
</g>
<defs>
<linearGradient id="paint0_linear_1876_52878" x1="40" y1="0" x2="40" y2="344" gradientUnits="userSpaceOnUse">
<stop stop-color="#FF0000"/>
<stop offset="0.505208" stop-color="#6100FF"/>
<stop offset="1" stop-color="#0047FF"/>
</linearGradient>
<linearGradient id="paint1_linear_1876_52878" x1="40" y1="1" x2="40" y2="345" gradientUnits="userSpaceOnUse">
<stop stop-color="#FF0000"/>
<stop offset="0.505208" stop-color="#6100FF"/>
<stop offset="1" stop-color="#0047FF"/>
</linearGradient>
</defs>
</svg>
