<svg width="176" height="312" viewBox="0 0 176 312" fill="none" xmlns="http://www.w3.org/2000/svg">
<g filter="url(#filter0_d_1866_52773)">
<path fill-rule="evenodd" clip-rule="evenodd" d="M150.708 49.741C150.708 65.6142 137.875 78.482 122.045 78.482C106.215 78.482 93.3818 65.6142 93.3818 49.741C93.3818 33.8678 106.215 21 122.045 21C137.875 21 150.708 33.8678 150.708 49.741ZM93.3818 119.13C93.3818 103.257 106.215 90.3889 122.045 90.3889C137.875 90.3889 150.708 103.257 150.708 119.13V182.538C151.476 190.763 148.719 199.257 142.438 205.555L73.9309 274.249C62.7373 285.473 44.5888 285.473 33.3952 274.249C22.2016 263.025 22.2016 244.827 33.3952 233.603L93.3818 173.453V119.13Z" fill="#0D476E"/>
</g>
<defs>
<filter id="filter0_d_1866_52773" x="0" y="0" width="175.836" height="311.668" filterUnits="userSpaceOnUse" color-interpolation-filters="sRGB">
<feFlood flood-opacity="0" result="BackgroundImageFix"/>
<feColorMatrix in="SourceAlpha" type="matrix" values="0 0 0 0 0 0 0 0 0 0 0 0 0 0 0 0 0 0 127 0" result="hardAlpha"/>
<feOffset dy="4"/>
<feGaussianBlur stdDeviation="12.5"/>
<feComposite in2="hardAlpha" operator="out"/>
<feColorMatrix type="matrix" values="0 0 0 0 0.129412 0 0 0 0 0.129412 0 0 0 0 0.129412 0 0 0 1 0"/>
<feBlend mode="normal" in2="BackgroundImageFix" result="effect1_dropShadow_1866_52773"/>
<feBlend mode="normal" in="SourceGraphic" in2="effect1_dropShadow_1866_52773" result="shape"/>
</filter>
</defs>
</svg>
