<svg width="64" height="64" viewBox="0 0 64 64" fill="none" xmlns="http://www.w3.org/2000/svg">
<path opacity="0.3" fill-rule="evenodd" clip-rule="evenodd" d="M41.3474 11.0007C41.3474 7.68659 44.0341 5 47.3481 5C50.662 5 53.3487 7.68659 53.3487 11.0007C53.3487 14.3148 50.662 17.0014 47.3481 17.0014C44.0341 17.0014 41.3474 14.3148 41.3474 11.0007ZM42.5889 26.9335C42.5889 23.6194 45.2756 20.9328 48.5896 20.9328C51.9035 20.9328 54.5903 23.6194 54.5903 26.9335V39.1418L54.587 39.3213L54.5806 39.4726C54.6129 40.4424 54.33 41.4207 53.7303 42.2398C53.2663 43.0075 52.6342 43.663 51.8874 44.1557L38.3438 57.7006C36.6109 59.4331 33.8013 59.4331 32.0699 57.7006C30.337 55.9681 30.337 53.1591 32.0699 51.4266L42.7942 40.7019C42.66 40.2044 42.5889 39.6814 42.5889 39.1418V26.9335ZM24.582 28.2208L27.1653 32.6953L33.7948 21.2112H20.5342L22.9493 25.3949L9 33.4486L10.6311 36.2748L24.582 28.2208Z" fill="white"/>
</svg>
