<svg width="64" height="64" viewBox="0 0 64 64" fill="none" xmlns="http://www.w3.org/2000/svg">
<path opacity="0.3" fill-rule="evenodd" clip-rule="evenodd" d="M40.0755 11.0007C40.0755 7.68659 42.7622 5 46.0762 5C49.3901 5 52.0768 7.68659 52.0768 11.0007C52.0768 14.3148 49.3901 17.0014 46.0762 17.0014C42.7622 17.0014 40.0755 14.3148 40.0755 11.0007ZM41.317 26.9335C41.317 23.6194 44.0037 20.9328 47.3177 20.9328C50.6316 20.9328 53.3183 23.6194 53.3183 26.9335V39.1418L53.3151 39.3346L53.3086 39.4726C53.341 40.4424 53.0581 41.4207 52.4583 42.2398C51.9944 43.0075 51.3623 43.663 50.6155 44.1557L37.0719 57.7006C35.339 59.4331 32.5294 59.4331 30.798 57.7006C29.0651 55.9681 29.0651 53.1591 30.798 51.4266L41.5223 40.7019C41.3881 40.2044 41.317 39.6814 41.317 39.1418V26.9335ZM21.8795 27.1597L13.8257 13.2099L11 14.8415L19.0537 28.7912L14.5791 31.3746L26.0631 38.0049V24.7443L21.8795 27.1597Z" fill="white"/>
</svg>
