<svg width="64" height="65" viewBox="0 0 64 65" fill="none" xmlns="http://www.w3.org/2000/svg">
<path d="M59 34.2005C59 36.3529 58.3247 37.9883 56.9742 39.1068C55.6237 40.2252 54.1254 40.7844 52.4795 40.7844C52.2263 40.7844 51.973 40.7738 51.7198 40.7527C51.4666 40.7316 51.2134 40.6788 50.9601 40.5944L23.8019 13.4362C24.3505 11.1572 25.7538 9.23688 28.0117 7.67533C30.2696 6.11378 33.34 5.33301 37.2227 5.33301C39.3751 5.33301 41.0106 5.97662 42.129 7.26384C43.2474 8.55106 43.8066 9.99655 43.8066 11.6003C43.8066 12.6976 43.5639 13.7738 43.0785 14.8289C42.5932 15.884 41.8441 16.7492 40.8312 17.4244C39.9027 18.0153 39.1536 18.775 38.5838 19.7035C38.0141 20.632 37.6237 21.6237 37.4127 22.6788L38.1723 23.0587C38.4256 23.1853 38.6577 23.333 38.8687 23.5018L44.6929 21.3494C45.4103 21.0962 46.0961 20.8957 46.7503 20.748C47.4045 20.6003 48.0903 20.5264 48.8077 20.5264C52.2263 20.5264 54.7796 21.9403 56.4678 24.7679C58.1559 27.5956 59 30.7398 59 34.2005ZM55.1383 59.2697L43.6166 47.6847C43.068 49.9637 41.6647 51.9157 39.4068 53.5405C37.1489 55.1654 34.0574 55.9778 30.1325 55.9778C27.9801 55.9778 26.3447 55.3342 25.2263 54.047C24.1079 52.7597 23.5487 51.2932 23.5487 49.6472C23.5487 48.5499 23.7913 47.4842 24.2767 46.4502C24.762 45.4162 25.5111 44.5616 26.524 43.8863C27.4525 43.2955 28.2016 42.5358 28.7714 41.6073C29.3412 40.6788 29.7315 39.6871 29.9426 38.632L29.1829 38.2521C28.9297 38.1255 28.6975 37.9778 28.4865 37.809L22.6624 39.8981C21.9449 40.1513 21.2485 40.3623 20.5733 40.5311C19.898 40.7 19.2016 40.7844 18.4842 40.7844C15.8253 40.7844 13.4725 39.6237 11.4256 37.3025C9.37866 34.9813 8.35522 31.5839 8.35522 27.1103C8.35522 24.9579 8.99883 23.3225 10.286 22.2041C11.5733 21.0856 13.0188 20.5264 14.6225 20.5264C14.9601 20.5264 15.3083 20.5475 15.6671 20.5897C16.0258 20.632 16.374 20.6953 16.7116 20.7797L5 9.13137L8.60844 5.52293L58.7468 55.6613L55.1383 59.2697Z" fill="white" fill-opacity="0.3"/>
</svg>
