<svg width="100" height="100" viewBox="0 0 100 100" fill="none" xmlns="http://www.w3.org/2000/svg">
<path d="M2.38419e-06 50C2.38419e-06 77.6142 22.3858 100 50 100C77.6142 100 100 77.6142 100 50C100 22.3858 77.6142 0 50 0C22.3858 0 2.38419e-06 22.3858 2.38419e-06 50Z" fill="#2272A7"/>
<path d="M35.0706 35H54.1294L66.8353 47.7059H77V58.5059H54.7647M50.3176 48.9765H39.5176H33.7813C31.7594 48.9765 29.8203 49.7797 28.3906 51.2094V51.2094C25.4135 54.1865 25.4135 59.0135 28.3906 61.9907V61.9907C29.8203 63.4203 31.7594 64.2235 33.7813 64.2235H39.5176M50.3176 48.9765L43.9647 42.6235M50.3176 48.9765L43.9647 55.3294" stroke="white" stroke-width="2.5" stroke-linecap="square" stroke-linejoin="round"/>
</svg>
